<?xml version="1.0" standalone="no"?>
<!DOCTYPE svg PUBLIC "-//W3C//DTD SVG 1.1//EN" "http://www.w3.org/Graphics/SVG/1.1/DTD/svg11.dtd" >
<svg xmlns="http://www.w3.org/2000/svg" xmlns:xlink="http://www.w3.org/1999/xlink" version="1.1">
<metadata></metadata>
<defs>
<font id="opiumnewcregular" horiz-adv-x="1081" >
<font-face units-per-em="2048" ascent="1518" descent="-530" />
<missing-glyph horiz-adv-x="598" />
<glyph horiz-adv-x="0" />
<glyph horiz-adv-x="682" />
<glyph unicode=" "  horiz-adv-x="598" />
<glyph unicode="&#x09;" horiz-adv-x="598" />
<glyph unicode="&#xa0;" horiz-adv-x="598" />
<glyph unicode="!" horiz-adv-x="602" d="M182 96q0 52 36 88.5t89 36.5q51 0 88 -37.5t37 -91.5q0 -51 -38 -86t-87 -35q-54 0 -89.5 36.5t-35.5 88.5zM197 1315q0 162 110 162q111 0 111 -162q0 -21 -14 -186.5t-36 -422t-32 -372.5h-57q-10 116 -32 372.5t-36 422t-14 186.5z" />
<glyph unicode="&#x22;" horiz-adv-x="878" d="M174 1389q0 118 90 118q94 0 94 -118q0 -42 -18.5 -184.5t-38.5 -264.5h-76l-20 160t-23 191.5t-8 97.5zM535 1389q0 118 90 118q94 0 94 -118q0 -42 -18.5 -184.5t-38.5 -264.5h-76l-20 160t-23 191.5t-8 97.5z" />
<glyph unicode="#" horiz-adv-x="1202" d="M53 455q4 36 4 67q0 22 -4 68q160 -21 271 -21q44 229 55 330q-165 0 -260 -18q4 36 4 63q0 36 -4 68q163 -17 276 -17q64 368 64 482q35 -7 69 -7q10 0 39.5 3t36.5 4q-39 -150 -98 -482h258q21 130 40 289t19 193l76 -7l72 7q-40 -109 -97 -482q194 0 269 17 q-6 -41 -6 -74q0 -30 6 -57q-189 18 -285 18l-53 -330q145 0 268 21q-4 -54 -4 -70q0 -29 4 -65q-100 18 -201 18h-81q-62 -333 -62 -504q-37 6 -67 6q-36 0 -80 -6q27 117 59.5 287t36.5 217h-266q-51 -319 -64 -504q-38 6 -74 6q-34 0 -69 -6q17 58 50.5 223t53.5 281 q-103 0 -256 -18zM428 569h270l52 330h-267q-35 -157 -55 -330z" />
<glyph unicode="$" horiz-adv-x="1202" d="M162 1051q0 161 97 265t271 132q0 85 -16 160q30 -6 72 -6q31 0 61 6q-16 -62 -16 -152q107 -8 186 -33t168 -82q-70 -98 -84 -186q-56 97 -121 148t-149 57v-514l100 -41q163 -66 241.5 -151.5t78.5 -225.5q0 -170 -121.5 -297t-298.5 -151q0 -128 16 -216q-35 7 -61 7 q-37 0 -72 -7q16 132 16 209q-220 0 -362 131q39 95 53 187q54 -111 127.5 -164t181.5 -61v612q-110 38 -183.5 79t-113 88t-55.5 95.5t-16 110.5zM330 1108q0 -48 9 -79t36 -58.5t59 -46.5t96 -52v482q-96 -13 -148 -79t-52 -167zM631 70q113 23 182.5 102.5t69.5 189.5 q0 83 -47 151.5t-127 102.5l-78 33v-579z" />
<glyph unicode="%" horiz-adv-x="1923" d="M213 1108q0 150 87.5 249t227.5 99q137 0 221.5 -100t84.5 -248q0 -144 -80 -243t-226 -99q-148 0 -231.5 96t-83.5 246zM356 1133q0 -297 168 -297q166 0 166 282q0 268 -166 268q-83 0 -125.5 -64.5t-42.5 -188.5zM666 -39q111 329 491 1516q24 -7 47 -7q24 0 56 7 q-246 -738 -492 -1516q-31 8 -47 8q-31 0 -55 -8zM1094 328q0 150 87.5 249t227.5 99q137 0 221 -100t84 -248q0 -144 -79.5 -243t-225.5 -99q-148 0 -231.5 96t-83.5 246zM1237 352q0 -297 168 -297q166 0 166 283q0 268 -166 268q-83 0 -125.5 -65t-42.5 -189z" />
<glyph unicode="&#x26;" horiz-adv-x="1560" d="M180 336q0 276 369 465q-135 195 -135 336q0 137 90.5 224t234.5 87q121 0 198 -64t77 -170q0 -201 -287 -391q217 -287 373 -456q77 104 243 419q20 -29 87 -86q-45 -81 -138 -210t-141 -181q26 -36 281 -315q-58 6 -132 6q-78 0 -131 -6q-66 103 -133 184 q-115 -114 -219.5 -161.5t-238.5 -47.5q-184 0 -291 102t-107 265zM365 397q0 -132 82.5 -223.5t216.5 -91.5q153 0 321 151q-82 98 -212 266.5t-173 231.5q-123 -64 -179 -151t-56 -183zM557 1182q0 -124 123 -295q190 139 190 305q0 69 -42.5 116.5t-108.5 47.5 q-67 0 -114.5 -53t-47.5 -121z" />
<glyph unicode="'" horiz-adv-x="602" d="M217 1389q0 118 90 118q94 0 94 -118q0 -42 -18.5 -184.5t-38.5 -264.5h-76l-20 160t-23 191.5t-8 97.5z" />
<glyph unicode="(" horiz-adv-x="600" d="M158 625q0 522 336 882l53 -47q-138 -179 -188 -374.5t-50 -464.5q0 -242 50.5 -438t187.5 -384l-55 -59q-334 353 -334 885z" />
<glyph unicode=")" horiz-adv-x="600" d="M53 -201q137 188 187.5 384t50.5 438q0 269 -50 464.5t-188 374.5l53 47q336 -360 336 -882q0 -533 -333 -885z" />
<glyph unicode="*" horiz-adv-x="1200" d="M225 948l45 15q108 37 217 100l43 31l-43 28q-113 67 -217 101l-45 16q58 52 72 127l35 -31q56 -49 117 -90l83 -61l31 -21l-2 47l-4 113q-7 57 -20 121l-9 41l74 -6l74 6l-8 -41q-15 -63 -21 -121l-4 -113l-2 -47l33 21l84 61q32 19 114 90l35 31q12 -76 72 -127 l-43 -16q-112 -36 -217 -101l-43 -28l43 -31q66 -42 217 -100l43 -15q-61 -58 -72 -129l-35 33q-16 12 -53.5 42t-60.5 48l-84 59l-33 21l2 -45l4 -115q7 -74 21 -119l8 -41l-74 5l-74 -5l9 41q13 59 20 119l4 115l2 45l-31 -21l-83 -59q-71 -52 -117 -90l-35 -33 q-12 72 -72 129z" />
<glyph unicode="+" horiz-adv-x="1923" d="M399 483v115h504v500h111v-500h504v-115h-504v-503h-111v503h-504z" />
<glyph unicode="," horiz-adv-x="602" d="M96 -379l150 488q36 112 110 112q82 0 82 -82q0 -48 -57 -147l-240 -398z" />
<glyph unicode="-" horiz-adv-x="745" d="M37 483v115h680v-115h-680z" />
<glyph unicode="." horiz-adv-x="602" d="M180 96q0 52 36 88.5t89 36.5q51 0 88 -37.5t37 -91.5q0 -51 -38 -86t-87 -35q-54 0 -89.5 36.5t-35.5 88.5z" />
<glyph unicode="/" horiz-adv-x="602" d="M-59 -35q59 112 293.5 784t273.5 855q54 -7 86 -7q8 0 39 3t41 4q-88 -205 -308 -832.5t-255 -806.5q-53 6 -84 6q-48 0 -86 -6z" />
<glyph unicode="0" horiz-adv-x="1202" d="M94 682q0 113 13 214.5t48.5 206t91.5 179.5t148.5 122.5t212.5 47.5q133 0 232.5 -56.5t159 -157.5t88 -230.5t28.5 -286.5q0 -130 -17.5 -240.5t-57 -206t-99.5 -162.5t-150 -105t-204 -38q-127 0 -223.5 54.5t-154.5 152.5t-87 225t-29 281zM293 655q0 -60 2 -110.5 t10 -113.5t21 -113t36.5 -99.5t55 -83t79 -54t105.5 -20.5q60 0 108 23t80 60t55.5 92.5t36.5 110t21 124.5t10 125t2 121q0 643 -315 643q-58 0 -104.5 -23t-78.5 -60t-55 -94t-36 -114.5t-20.5 -133.5t-10 -139t-2.5 -141z" />
<glyph unicode="1" horiz-adv-x="1202" d="M233 1219q69 22 246 100t277 133q-17 -137 -17 -664q0 -475 17 -794q-50 6 -103 6q-55 0 -104 -6q16 300 16 794q0 374 -4 472l-242 -140q-43 65 -86 99z" />
<glyph unicode="2" horiz-adv-x="1202" d="M86 6l477 506q142 150 194 281t52 268q0 149 -63 224t-185 75q-101 0 -169 -59.5t-105 -192.5l-86 137q51 89 158 148t231 59q188 0 303 -100t115 -273q0 -56 -9 -106t-31.5 -100t-47 -92t-69.5 -96.5t-84.5 -98.5t-104.5 -113l-312 -330q488 0 676 21q-6 -50 -6 -94 t6 -88q-114 18 -336 18h-229q-199 0 -361 -18z" />
<glyph unicode="3" horiz-adv-x="1202" d="M147 47q16 81 23 170q93 -100 157.5 -134t147.5 -34q157 0 244.5 97t87.5 264q0 142 -72.5 219.5t-202.5 77.5q-56 0 -120 -19q4 32 4 60q0 25 -4 57q61 -19 96 -19q114 0 174.5 89.5t60.5 226.5q0 121 -57 195.5t-160 74.5q-71 0 -133.5 -43t-128.5 -143q-14 62 -55 137 q165 129 360 129q161 0 267 -92t106 -240q0 -77 -22.5 -142.5t-76.5 -122t-136 -85.5q168 -33 238.5 -123t70.5 -229q0 -87 -29 -160.5t-79.5 -126t-119 -89.5t-148 -55t-165.5 -18q-89 0 -167 16t-161 62z" />
<glyph unicode="4" horiz-adv-x="1202" d="M31 397q131 165 386 532.5t322 497.5q46 -6 101 -6q46 0 90 6v-4q-19 -155 -19 -477v-403q95 0 195 20q-4 -62 -4 -94q0 -40 4 -86q-52 16 -141 16h-54q0 -222 19 -405l-99 6q-18 0 -36.5 -1t-40 -2.5t-33.5 -2.5q14 189 14 405h-305q-173 0 -385 -16zM262 549 q129 -6 213 -6h168q44 0 94 4q6 200 6 414v294q-343 -475 -481 -706z" />
<glyph unicode="5" horiz-adv-x="1202" d="M147 59q35 93 48 158q86 -93 153 -124.5t141 -31.5q148 0 244 111.5t96 276.5q0 157 -74.5 256.5t-213.5 99.5q-119 0 -238 -107l-20 13q18 207 18 372q0 170 -18 357q135 -19 190 -19h295q92 0 221 19q-6 -87 -6 -90l6 -93q-240 21 -592 21q-16 -212 -16 -428 q146 47 231 47q192 0 307 -118.5t115 -297.5q0 -224 -150 -368t-397 -144q-184 0 -340 90z" />
<glyph unicode="6" horiz-adv-x="1202" d="M133 588q0 138 26.5 265.5t80.5 236.5t130 189.5t181.5 126.5t228.5 46q49 0 101 -8q8 -25 37 -105q-72 17 -136 17q-99 0 -179 -51t-134.5 -144t-88.5 -215.5t-48 -273.5q111 198 350 198q187 0 301.5 -112t114.5 -303q0 -216 -126.5 -351t-348.5 -135 q-240 0 -365 162.5t-125 456.5zM346 410q0 -152 73.5 -250.5t205.5 -98.5q133 0 203.5 109t70.5 268q0 91 -26 165.5t-87.5 124.5t-150.5 50q-91 0 -158.5 -56t-99 -138t-31.5 -174z" />
<glyph unicode="7" horiz-adv-x="1202" d="M184 -6q239 339 760 1259h-328q-298 0 -393 -18q4 54 4 98q0 49 -4 107q152 -19 412 -19h287q110 0 215 6l14 -24l-430 -766q-175 -314 -237.5 -437t-86.5 -206q-47 6 -92 6q-71 0 -121 -6z" />
<glyph unicode="8" horiz-adv-x="1202" d="M109 391q0 66 15 127t48.5 120t95 104t146.5 67q-100 19 -168 104t-68 195q0 155 116.5 249.5t297.5 94.5q111 0 204 -40t151.5 -119.5t58.5 -184.5q0 -239 -236 -299q98 -24 168.5 -88.5t103.5 -149t33 -178.5q0 -109 -41 -193t-110.5 -133t-153.5 -73.5t-178 -24.5 q-74 0 -142.5 14.5t-131 47.5t-108.5 81t-73.5 120t-27.5 159zM307 389q0 -150 75 -239t210 -89t210 91.5t75 234.5q0 96 -30.5 178.5t-97 138.5t-157.5 56q-133 0 -209 -106.5t-76 -264.5zM367 1094q0 -108 60 -175t165 -67q104 0 164.5 66.5t60.5 173.5q0 110 -64.5 189 t-160.5 79q-100 0 -162.5 -81t-62.5 -185z" />
<glyph unicode="9" horiz-adv-x="1200" d="M123 981q0 213 131 342t344 129q122 0 215 -46.5t150 -130.5t85.5 -195t28.5 -246q0 -185 -51 -347t-137 -275t-202 -178t-243 -65q-90 0 -172 35q-11 57 -49 146q143 -89 234 -89q69 0 130 31.5t106.5 85t81.5 123t58.5 147.5t34 155.5t11.5 150.5 q-66 -104 -147.5 -150.5t-194.5 -46.5q-184 0 -299 121.5t-115 302.5zM322 995q0 -162 69.5 -254t198.5 -92q70 0 124.5 34t86 89t47.5 116.5t16 123.5q0 64 -15.5 123.5t-46 111t-84 82.5t-122.5 31q-133 0 -203.5 -102.5t-70.5 -262.5z" />
<glyph unicode=":" horiz-adv-x="602" d="M176 96q0 52 36 88.5t89 36.5q51 0 88 -37.5t37 -91.5q0 -51 -38 -86t-87 -35q-54 0 -89.5 36.5t-35.5 88.5zM176 836q0 52 36 88.5t89 36.5q51 0 88 -38t37 -92q0 -51 -38 -85.5t-87 -34.5q-54 0 -89.5 36.5t-35.5 88.5z" />
<glyph unicode=";" horiz-adv-x="602" d="M84 -379l149 488q36 112 111 112q82 0 82 -82q0 -48 -57 -147l-240 -398zM176 836q0 52 36 88.5t89 36.5q51 0 88 -38t37 -92q0 -51 -38 -85.5t-87 -34.5q-54 0 -89.5 36.5t-35.5 88.5z" />
<glyph unicode="&#x3c;" horiz-adv-x="2162" d="M434 596q10 23 10 61q0 28 -8 41q259 105 705.5 309t556.5 263q0 -84 43 -127q-305 -116 -1108 -496q212 -103 579.5 -269t528.5 -226q-43 -43 -43 -127q-254 125 -668 312.5t-596 258.5z" />
<glyph unicode="=" horiz-adv-x="1896" d="M389 348v113h1118v-113h-1118zM389 616v115h1118v-115h-1118z" />
<glyph unicode="&#x3e;" horiz-adv-x="2162" d="M422 152q43 -43 43 -127q254 125 668 312.5t596 258.5q-11 26 -11 61q0 28 8 41q-259 105 -705 308.5t-556 263.5q0 -84 -43 -127q305 -116 1108 -496q-212 -103 -579.5 -269t-528.5 -226z" />
<glyph unicode="?" horiz-adv-x="841" d="M193 1409q127 68 227 68q141 0 225 -81t84 -216q0 -85 -40 -162t-150 -209q-97 -116 -130.5 -171.5t-33.5 -88.5q0 -110 121 -119q26 0 77 29l-43 -115h-47q-116 0 -187 67.5t-71 184.5q0 76 39 155t146 189q95 98 132.5 160t37.5 117q0 73 -53 123.5t-128 50.5 q-84 0 -188 -99zM301 96q0 52 36 88.5t89 36.5q51 0 88 -37.5t37 -91.5q0 -51 -38 -86t-87 -35q-54 0 -89.5 36.5t-35.5 88.5z" />
<glyph unicode="@" horiz-adv-x="1441" d="M88 743q0 148 44.5 271t120 207.5t176.5 143t212.5 85.5t230.5 27q78 0 140 -9.5t121 -36t98.5 -69.5t63.5 -113t24 -164v-503q0 -77 15 -98t50 -21q19 0 43 4l13 -51q-83 -33 -146 -33q-57 0 -90.5 27t-50.5 106q-87 -64 -164 -98.5t-166 -34.5q-143 0 -225 71.5 t-82 198.5q0 74 22 128t65 87.5t93 52.5t121 33l209 39q86 15 106.5 34.5t20.5 92.5q0 77 -24 129.5t-70 81t-101.5 40t-130.5 11.5q-73 0 -145 -23t-140 -74t-120 -123.5t-83.5 -180.5t-31.5 -236q0 -191 67 -339.5t199 -235t310 -86.5q113 0 221.5 37.5t228.5 140.5 l15 -24l-19 -127q-121 -67 -236 -94t-245 -27q-354 0 -557 203.5t-203 549.5zM711 684q0 -182 198 -182q150 0 244 116v316l-131 -21q-155 -24 -233 -78t-78 -151z" />
<glyph unicode="A" horiz-adv-x="1441" d="M31 -4q54 92 164 327t205 451t196.5 449.5t110.5 253.5h51q88 -220 321 -756t332 -725q-66 4 -115 4q-52 0 -118 -4q-11 27 -104 258t-124 299q-119 18 -284 18q-146 0 -254 -18q-76 -153 -217 -557q-46 4 -78 4q-46 0 -86 -4zM475 694q114 -14 207 -14q84 0 203 14 q-47 126 -203 477z" />
<glyph unicode="B" horiz-adv-x="1327" d="M197 -6q16 300 16 794q0 566 -16 695q153 -6 209 -6q30 0 102 3t88 3q118 0 205.5 -13.5t162 -47t113.5 -98t39 -159.5q0 -134 -82 -220t-246 -142q107 -22 181.5 -58.5t116 -85.5t59.5 -104.5t18 -124.5q0 -110 -44.5 -194.5t-124 -136.5t-183.5 -78.5t-229 -26.5 q-41 0 -138 3t-125 3q-35 0 -122 -6zM397 113q90 -4 174 -4q81 0 148.5 17.5t121 55t83.5 101t30 149.5q0 73 -22.5 125.5t-77 93.5t-154 61.5t-245.5 20.5h-58v-620zM397 846q46 -4 109 -4q178 0 289.5 73t111.5 209q0 63 -26.5 111t-73.5 76.5t-106.5 42.5t-131.5 14 q-86 0 -172 -4v-518z" />
<glyph unicode="C" horiz-adv-x="1443" d="M92 725q0 357 221.5 569.5t585.5 212.5q291 0 483 -100l-51 -172h-33q-195 176 -411 176q-119 0 -216 -39t-162.5 -104.5t-110.5 -154t-65 -185.5t-20 -201q0 -100 21 -194t67 -179.5t112.5 -149t163 -101t212.5 -37.5q246 0 448 176l17 -23l-21 -129 q-120 -67 -234.5 -94t-244.5 -27q-343 0 -552.5 204t-209.5 552z" />
<glyph unicode="D" horiz-adv-x="1662" d="M197 -6q16 300 16 794q0 566 -16 695q73 -6 221 -6q54 0 187 3t194 3q357 0 557 -182t200 -508q0 -198 -66 -351t-188 -250.5t-290.5 -147.5t-376.5 -50q-38 0 -133.5 3t-128.5 3q-121 0 -176 -6zM397 729q0 -358 6 -616q110 -4 244 -4q168 0 292 35.5t214.5 113.5 t136 207.5t45.5 312.5q0 168 -43.5 283t-135 182.5t-218.5 96t-309 28.5q-120 0 -226 -4q-6 -234 -6 -635z" />
<glyph unicode="E" d="M197 -6q16 300 16 794q0 566 -16 695q70 -6 303 -6h227q124 0 252 16q-6 -30 -6 -68q0 -43 6 -73q-172 16 -401 16q-122 0 -168 -4q-13 -271 -13 -287v-252h156q203 0 371 19q-9 -40 -9 -72q0 -16 9 -72q-97 17 -527 17v-299q0 -181 9 -309h198q123 0 377 16 q-6 -75 -6 -80q0 -21 6 -51q-126 6 -360 6h-152q-173 0 -272 -6z" />
<glyph unicode="F" horiz-adv-x="1067" d="M197 -6q16 300 16 794q0 566 -16 695q129 -6 299 -6h204q34 0 140 5.5t161 10.5q-6 -30 -6 -68q0 -43 6 -73q-172 16 -428 16h-170q-6 -105 -6 -233v-299h156q260 0 401 16q-8 -36 -8 -72q0 -21 8 -71q-41 7 -219 12.5t-338 5.5q0 -468 17 -733q-52 6 -105 6 q-63 0 -112 -6z" />
<glyph unicode="G" horiz-adv-x="1683" d="M92 725q0 247 107 425t297 267.5t444 89.5q151 0 278.5 -28t276.5 -109q-47 -100 -55 -160l-27 -8q-217 209 -491 209q-146 0 -264 -55t-192 -149t-113.5 -214t-39.5 -254q0 -315 161 -494t474 -179q197 0 324 65q18 166 18 260q0 84 -18 291q50 -6 112 -6q58 0 107 6 q-16 -125 -16 -430q0 -100 16 -199q-221 -52 -328 -68t-241 -16q-393 0 -611.5 196.5t-218.5 559.5z" />
<glyph unicode="H" horiz-adv-x="1677" d="M197 -6q16 300 16 794q0 566 -16 695q111 -6 116 -6q2 0 101 6q-17 -137 -17 -625q301 -14 480 -14q174 0 403 16q0 494 -16 623q111 -6 116 -6q2 0 101 6q-17 -137 -17 -695q0 -475 17 -794q-99 6 -103 6q-15 0 -114 -6q16 300 16 725q-229 16 -414 16q-182 0 -469 -16 q0 -406 17 -725q-99 6 -103 6q-15 0 -114 -6z" />
<glyph unicode="I" horiz-adv-x="610" d="M197 -6q16 300 16 794q0 566 -16 695q111 -6 116 -6q2 0 101 6q-17 -137 -17 -695q0 -475 17 -794q-99 6 -103 6q-15 0 -114 -6z" />
<glyph unicode="J" horiz-adv-x="608" d="M-57 -238q50 6 87.5 16.5t66 34.5t48 46t32.5 69.5t20 85.5t11 114.5t4.5 135t0.5 166.5v528q0 394 -18 525q111 -6 116 -6q2 0 101 6q-15 -181 -15 -522v-535q0 -33 3 -130.5t3 -117.5q0 -470 -450 -493q0 39 -10 77z" />
<glyph unicode="K" horiz-adv-x="1320" d="M197 -6q16 300 16 794q0 566 -16 695q111 -6 116 -6q2 0 101 6q-17 -137 -17 -682q115 87 315 294.5t359 387.5q105 -6 109 -6q19 0 106 6q-385 -352 -696 -668q128 -154 349.5 -407.5t367.5 -413.5q-65 6 -133 6q-86 0 -138 -6q-205 280 -639 751q0 -432 17 -751 q-99 6 -103 6q-15 0 -114 -6z" />
<glyph unicode="L" horiz-adv-x="1064" d="M197 -6q16 300 16 794q0 566 -16 695q111 -6 116 -6q2 0 101 6q-17 -137 -17 -695q0 -588 6 -679h252q221 0 336 16q-1 -9 -2.5 -27t-2.5 -31.5t-1 -21.5q0 -21 6 -51q-99 6 -241 6h-330q-115 0 -223 -6z" />
<glyph unicode="M" horiz-adv-x="1923" d="M86 -6q38 193 108.5 692.5t104.5 790.5h41q84 -176 316 -612.5t313 -559.5q67 125 635 1172h38q36 -355 92 -824t87 -659q-49 6 -101 6q-58 0 -108 -6q-9 125 -49 511t-64 576q-61 -101 -242 -451t-317 -630h-39q-95 196 -257.5 514t-287.5 549q-28 -174 -67 -540.5 t-39 -528.5q-38 6 -78 6q-52 0 -86 -6z" />
<glyph unicode="N" horiz-adv-x="1646" d="M197 -6q16 300 16 794q0 560 -16 689h57l1067 -1127v438q0 566 -16 695q47 -6 73 -6q18 0 72 6q-16 -129 -16 -695q0 -517 16 -817h-57q-172 202 -295 330l-772 807v-320q0 -494 16 -794q-34 6 -72 6q-43 0 -73 -6z" />
<glyph unicode="O" horiz-adv-x="1796" d="M92 727q0 228 105 407t288.5 276t413.5 97q172 0 319.5 -51.5t255 -146t169 -236t61.5 -313.5q0 -223 -104 -403.5t-291.5 -284t-423.5 -103.5q-170 0 -315 52t-251.5 148t-166.5 239.5t-60 318.5zM313 727q0 -107 22.5 -204t70 -180.5t115 -145t163 -96.5t209.5 -35 q266 0 428 185.5t162 502.5q0 304 -150.5 480.5t-429.5 176.5q-275 0 -432.5 -182t-157.5 -502z" />
<glyph unicode="P" horiz-adv-x="1239" d="M197 -6q16 300 16 794q0 566 -16 695q204 -6 206 -6q38 0 116 3t102 3q281 0 403.5 -88.5t122.5 -284.5q0 -98 -32.5 -174t-87.5 -125.5t-134.5 -81.5t-168 -45.5t-192.5 -13.5q-57 0 -135 8v-354q0 -186 17 -330q-52 6 -105 6q-63 0 -112 -6zM397 786q50 -8 86 -8 q217 0 336 85.5t119 246.5q0 74 -27 125.5t-78 80t-112.5 40.5t-140.5 12q-140 0 -183 -6v-576z" />
<glyph unicode="Q" horiz-adv-x="1794" d="M92 727q0 235 107 414t288.5 272.5t407.5 93.5q233 0 415 -87t287 -255t105 -393q0 -125 -35.5 -245.5t-102 -225t-172 -183t-235.5 -112.5q301 -233 500 -352q-113 -50 -193 -96q-271 263 -491 411h-78q-371 0 -587 202t-216 556zM313 715q0 -128 37 -244t106.5 -207 t178.5 -144.5t242 -53.5q114 0 211.5 36t169 100t122 151.5t76 193t25.5 221.5q0 189 -66.5 333t-199 227t-314.5 83q-147 0 -260.5 -53t-184.5 -147.5t-107 -220t-36 -275.5z" />
<glyph unicode="R" horiz-adv-x="1327" d="M197 -6q16 300 16 794q0 566 -16 695q88 -6 233 -6q25 0 133 3t150 3q201 0 315.5 -87t114.5 -251q0 -76 -28 -144t-82 -122.5t-139 -91.5t-192 -48q270 -345 379.5 -479t225.5 -266q-71 6 -144 6t-135 -6q-103 151 -262.5 357t-294.5 366h-74q0 -450 17 -723 q-52 6 -105 6q-63 0 -112 -6zM397 825h68q65 0 123 7t121.5 26.5t108.5 51.5t74.5 86.5t29.5 125.5q0 117 -90.5 181.5t-266.5 64.5q-125 0 -168 -6v-537z" />
<glyph unicode="S" d="M98 100q33 106 35 156l27 4q145 -194 336 -194q136 0 219.5 82.5t83.5 222.5q0 101 -64 170.5t-164 109.5l-182 74q-130 52 -197 149t-67 230q0 97 36 175t98 127t142 75t170 26q195 0 330 -104q-37 -93 -55 -154l-27 -4q-90 166 -272 166q-112 0 -184 -65.5t-72 -182.5 q0 -110 58.5 -172t174.5 -106l191 -74q120 -45 185 -139.5t65 -220.5q0 -209 -148 -345.5t-371 -136.5q-98 0 -181.5 26t-166.5 105z" />
<glyph unicode="T" horiz-adv-x="1183" d="M51 1352q1 8 2.5 23.5t2.5 26.5t1 17q0 7 -1 19.5t-2.5 29t-2.5 25.5q272 -16 541 -16t541 16q-1 -9 -4 -37t-3 -37q0 -8 3 -33.5t4 -33.5q-115 16 -402 16h-39q-8 -151 -8 -580q0 -494 16 -794q-99 6 -102 6q-16 0 -115 -6q17 319 17 794q0 429 -8 580h-39 q-287 0 -402 -16z" />
<glyph unicode="U" horiz-adv-x="1652" d="M197 1483q111 -6 116 -6q2 0 101 6q-15 -181 -15 -522v-388q0 -241 116.5 -365t336.5 -124q86 0 154.5 17t117.5 46.5t84.5 77.5t57.5 103t35 131t17.5 152.5t4.5 176.5q0 566 -16 695q40 -6 75 -6q30 0 74 6q-16 -129 -16 -695q0 -231 -35.5 -386.5t-114.5 -252.5 t-197 -138.5t-292 -41.5q-281 0 -433.5 143t-152.5 423v423q0 394 -18 525z" />
<glyph unicode="V" horiz-adv-x="1441" d="M20 1483q117 -6 132 -6q11 0 116 6q49 -165 204.5 -556.5t283.5 -682.5q114 272 274 686t197 553q53 -6 86 -6q1 0 88 6q-72 -143 -276.5 -637t-340.5 -852q-34 6 -71 6q-50 0 -80 -6q-39 128 -271 687.5t-342 801.5z" />
<glyph unicode="W" horiz-adv-x="2162" d="M37 1483q77 -6 131 -6q3 0 96 6q43 -183 156.5 -569t216.5 -703q353 1031 410 1272q69 -6 71 -6q6 0 66 6q81 -290 403 -1237q67 186 204.5 642.5t172.5 594.5q34 -6 78 -6q3 0 84 6q-129 -337 -301.5 -832.5t-210.5 -656.5q-34 6 -76 6q-46 0 -76 -6q-44 156 -182 593.5 t-199 618.5q-41 -119 -130.5 -374t-163 -467t-125.5 -371q-60 6 -74 6q-7 0 -76 -6q-100 348 -260.5 856.5t-214.5 632.5z" />
<glyph unicode="X" horiz-adv-x="1320" d="M68 -6q68 94 270 397.5t229 356.5q-56 99 -239.5 393.5t-223.5 341.5q82 -6 138 -6q64 0 108 6q57 -110 161.5 -293t166.5 -283q95 139 209 326t145 250q44 -6 94 -6q46 0 80 6q-122 -151 -465 -668q60 -109 235 -394t271 -427q-67 6 -135 6q-4 0 -121 -6 q-106 225 -360 657q-247 -388 -389 -657q-38 6 -80 6q-54 0 -94 -6z" />
<glyph unicode="Y" horiz-adv-x="1320" d="M35 1483q129 -6 131 -6q34 0 133 6q151 -314 397 -731q113 179 237 405.5t161 325.5q11 -1 31.5 -2.5t36 -2.5t24.5 -1t25.5 1t39 2.5t33.5 2.5q-88 -111 -526 -834q0 -324 16 -655q-99 6 -102 6q-16 0 -115 -6q16 232 16 606q-415 696 -538 883z" />
<glyph unicode="Z" horiz-adv-x="1320" d="M20 16q115 157 480 692.5t442 659.5q-625 0 -825 -16q4 54 4 75q0 42 -4 66q101 -16 514 -16q238 0 606 16l10 -45q-179 -232 -452.5 -633t-464.5 -706h370q386 0 543 16q-6 -30 -6 -72q0 -45 6 -69q-112 16 -461 16h-411q-136 0 -328 -16z" />
<glyph unicode="[" horiz-adv-x="602" d="M156 -344q20 488 20 833v195q0 295 -20 811q105 -18 221 -18q58 0 211 18v-129q-123 27 -242 33v-1647q134 13 242 33v-129q-151 18 -228 18q-88 0 -204 -18z" />
<glyph unicode="\" horiz-adv-x="602" d="M-72 1604q51 -7 92 -7q30 0 74 7q61 -233 248.5 -777.5t319.5 -861.5q-38 6 -78 6q-54 0 -88 -6q-80 316 -245.5 779t-322.5 860z" />
<glyph unicode="]" horiz-adv-x="602" d="M14 -215q108 -20 242 -33v1647q-119 -6 -242 -33v129q153 -18 211 -18q116 0 221 18q-20 -516 -20 -811v-195q0 -345 20 -833q-116 18 -204 18q-77 0 -228 -18v129z" />
<glyph unicode="^" d="M109 1051v98q271 203 380 473h109q60 -139 145 -248.5t236 -224.5v-98q-258 97 -434 282q-76 -84 -195 -163.5t-241 -118.5z" />
<glyph unicode="_" d="M0 -367h1081v-108h-1081v108z" />
<glyph unicode="`" horiz-adv-x="1202" d="M311 1470l13 27q78 -10 112 -10q29 0 121 10q32 -78 84 -174t100 -166h-77q-143 149 -353 313z" />
<glyph unicode="a" horiz-adv-x="1040" d="M78 242q0 130 77.5 202.5t209.5 96.5l247 45q55 9 81 28t26 56q0 161 -63.5 231t-186.5 70q-200 0 -276 -164h-25v119q163 125 350 125q170 0 267.5 -92t97.5 -285v-494q0 -82 14.5 -105.5t50.5 -23.5q19 0 43 4l13 -51q-91 -33 -148 -33q-103 0 -127 90l-12 45 q-82 -65 -169 -100t-163 -35q-141 0 -224 71.5t-83 199.5zM272 272q0 -182 199 -182q136 0 248 117v315l-135 -20q-63 -10 -112 -24.5t-97.5 -40t-75.5 -67.5t-27 -98z" />
<glyph unicode="b" horiz-adv-x="1204" d="M139 -20q19 185 19 614v399q0 430 -19 615q12 -1 35.5 -2.5t41 -2.5t28.5 -1q3 0 96 6q-18 -176 -18 -615v-159q72 116 163 166.5t205 50.5q195 0 315.5 -141.5t120.5 -360.5q0 -160 -58.5 -291t-170.5 -209t-258 -78q-197 0 -297 146l-182 -146zM330 477q0 -74 8 -133 t27.5 -113t51.5 -90t82.5 -57t116.5 -21t119.5 26.5t89 71.5t60 106.5t35 129t10.5 142.5q0 122 -30.5 214.5t-98 148.5t-164.5 56q-87 0 -150 -43t-95.5 -116t-47 -152.5t-14.5 -169.5z" />
<glyph unicode="c" horiz-adv-x="1034" d="M78 510q0 246 153 393.5t402 147.5q186 0 354 -90l-51 -154h-25q-101 164 -284 164q-87 0 -156.5 -39.5t-111.5 -105t-64.5 -145.5t-22.5 -167q0 -202 106.5 -332.5t291.5 -130.5q74 0 135 27t143 115l19 -23l-25 -100q-147 -99 -336 -99q-237 0 -382.5 150.5 t-145.5 388.5z" />
<glyph unicode="d" horiz-adv-x="1206" d="M78 512q0 113 33 212t92.5 171.5t148.5 114t195 41.5q66 0 131.5 -20.5t123.5 -67t83 -111.5v141q0 430 -19 615q12 -1 35.5 -2.5t41 -2.5t28.5 -1q3 0 96 6q-18 -176 -18 -615v-385q0 -438 18 -614q-46 6 -94 6q-61 0 -107 -6q13 153 13 201q-115 -224 -361 -224 q-107 0 -192 43.5t-138.5 118.5t-81.5 171.5t-28 207.5zM272 524q0 -90 14 -166.5t45 -145.5t90 -109t140 -40q156 0 233.5 125.5t77.5 335.5q0 120 -29.5 215.5t-97 157t-163.5 61.5q-310 0 -310 -434z" />
<glyph unicode="e" d="M78 502q0 161 53.5 283t166.5 194t275 72q216 0 326.5 -122t110.5 -364q0 -31 -4 -71q-156 16 -256 16h-478q0 -459 357 -459q101 0 180 40.5t154 121.5l18 -20l-25 -103q-168 -119 -372 -119q-232 0 -369 145t-137 386zM272 602h541v60q0 126 -70 217.5t-180 91.5 q-128 0 -202.5 -102t-88.5 -267z" />
<glyph unicode="f" horiz-adv-x="600" d="M55 915q6 30 6 62q0 29 -6 63q51 -16 109 -16h35q0 119 38 232t96.5 190.5t128.5 124.5t134 47q36 0 57 -6q-6 -87 -6 -92q0 -9 1 -25t2.5 -37.5t2.5 -34.5q-82 31 -127 31q-178 0 -178 -182q0 -97 19 -248q89 0 225 16q-4 -40 -4 -65q0 -28 4 -60q-119 17 -168 17h-62 v-324q0 -429 19 -614q-47 6 -94 6q-61 0 -107 -6q19 185 19 614v324h-35q-35 0 -109 -17z" />
<glyph unicode="g" horiz-adv-x="1089" d="M82 -162q0 168 248 250q-158 41 -158 160q0 112 166 178q-229 63 -229 291q0 73 25.5 131t68.5 95.5t102 62t122 35t134 10.5q59 0 139 -5.5t84 -5.5q125 0 244 17q-4 -32 -4 -51q0 -32 4 -64l-201 16q113 -93 113 -229q0 -94 -57.5 -173t-147.5 -122t-190 -43h-94 q-144 0 -144 -86t152 -86h239q156 0 253.5 -65t97.5 -191q0 -120 -72 -213.5t-191 -142.5t-262 -49q-67 0 -128 8.5t-119.5 29t-100.5 51.5t-68 80t-26 111zM225 -152q0 -106 85 -158t220 -52q156 0 256.5 62.5t100.5 182.5q0 197 -326 197q-69 0 -125 -11t-105.5 -35.5 t-77.5 -72t-28 -113.5zM305 723q0 -252 213 -252q102 0 163.5 69t61.5 185q0 102 -58 174t-161 72q-102 0 -160.5 -69t-58.5 -179z" />
<glyph unicode="h" horiz-adv-x="1163" d="M139 -6q19 185 19 614v385q0 430 -19 615q12 -1 35.5 -2.5t41 -2.5t28.5 -1q3 0 96 6q-18 -176 -18 -615v-135q51 96 141.5 144.5t193.5 48.5q153 0 254 -90.5t101 -243.5q0 -24 -3 -97t-3 -108q0 -342 18 -518q-46 6 -94 6q-60 0 -107 -6q19 185 19 518q0 226 -64 324 t-190 98q-52 0 -93.5 -15t-69 -39t-47 -62t-30.5 -74t-17 -85.5t-7.5 -87t-1.5 -86.5q0 -315 18 -491q-46 6 -94 6q-60 0 -107 -6z" />
<glyph unicode="i" horiz-adv-x="589" d="M184 1411q0 46 31 77.5t80 31.5q111 0 111 -109q0 -50 -29.5 -81.5t-81.5 -31.5t-81.5 31.5t-29.5 81.5zM190 -6q19 185 19 518q0 335 -19 518q12 -1 35.5 -2.5t41 -2.5t28.5 -1q3 0 96 6q-18 -173 -18 -518q0 -342 18 -518q-47 6 -94 6q-61 0 -107 -6z" />
<glyph unicode="j" horiz-adv-x="600" d="M-6 -377l57 15q50 12 85.5 55t52 104t23.5 117.5t7 116.5v385q0 438 -18 614q12 -1 35 -2.5t40.5 -2.5t28.5 -1q3 0 96 6q-18 -176 -18 -614v-385q0 -57 -1.5 -91.5t-9 -84.5t-21.5 -81.5t-41 -69.5t-66 -63t-97.5 -47.5t-134.5 -35.5zM195 1411q0 47 30.5 78t79.5 31 q111 0 111 -109q0 -50 -29.5 -81.5t-81.5 -31.5q-51 0 -80.5 31t-29.5 82z" />
<glyph unicode="k" horiz-adv-x="1069" d="M139 -6q19 185 19 614v385q0 430 -19 615q12 -1 35.5 -2.5t41 -2.5t28.5 -1q3 0 96 6q-18 -176 -18 -615v-413h32q31 0 136 101.5t199 209t112 139.5q87 -6 100 -6q7 0 100 6l-489 -438q47 -56 237 -268.5t298 -329.5q-83 6 -123 6q-72 0 -136 -6q-52 82 -188 246 t-246 284h-32q0 -354 18 -530q-46 6 -94 6q-60 0 -107 -6z" />
<glyph unicode="l" horiz-adv-x="569" d="M184 -6q19 185 19 614v385q0 430 -19 615q12 -1 35.5 -2.5t41 -2.5t28.5 -1q3 0 96 6q-18 -176 -18 -615v-385q0 -438 18 -614q-47 6 -94 6q-61 0 -107 -6z" />
<glyph unicode="m" horiz-adv-x="1773" d="M139 -6q19 185 19 518q0 335 -19 518q12 -1 35.5 -2.5t41 -2.5t28.5 -1q3 0 96 6q-10 -87 -10 -153q53 89 137 131.5t180 42.5q116 0 190 -48t113 -165q48 97 138 155t212 58q150 0 236 -89t86 -245q0 -24 -3 -97t-3 -108q0 -342 18 -518q-46 6 -94 6q-60 0 -106 -6 q18 176 18 518q0 170 -24.5 263t-70 126t-126.5 33q-67 0 -114.5 -22t-76 -58.5t-44.5 -96.5t-21.5 -122.5t-5.5 -149.5q0 -315 18 -491q-47 6 -94 6q-61 0 -107 -6q19 185 19 518q0 170 -24.5 263t-70 126t-126.5 33q-67 0 -114.5 -22t-76 -58.5t-44.5 -96.5t-21.5 -122.5 t-5.5 -149.5q0 -315 18 -491q-46 6 -94 6q-60 0 -107 -6z" />
<glyph unicode="n" horiz-adv-x="1163" d="M139 -6q19 185 19 518q0 335 -19 518q12 -1 35.5 -2.5t41 -2.5t28.5 -1q3 0 96 6q-10 -87 -10 -160q49 89 137 135t190 46q153 0 254 -90.5t101 -243.5q0 -24 -3 -97t-3 -108q0 -342 18 -518q-46 6 -94 6q-60 0 -107 -6q19 185 19 518q0 226 -64 324t-190 98 q-52 0 -93.5 -15t-69 -39t-47 -62t-30.5 -74t-17 -85.5t-7.5 -87t-1.5 -86.5q0 -315 18 -491q-46 6 -94 6q-60 0 -107 -6z" />
<glyph unicode="o" horiz-adv-x="1191" d="M78 489q0 254 147 408t383 154q230 0 368 -149.5t138 -383.5q0 -156 -63 -280t-183 -195.5t-278 -71.5q-153 0 -271 70t-179.5 187t-61.5 261zM272 496q0 -120 32 -218t105 -162.5t177 -64.5q154 0 244 132.5t90 342.5q0 87 -18 163.5t-54 141t-99.5 102.5t-146.5 38 q-106 0 -182.5 -69t-112 -174.5t-35.5 -231.5z" />
<glyph unicode="p" horiz-adv-x="1198" d="M139 -451q19 185 19 615v252q0 429 -19 614q12 -1 35.5 -2.5t41 -2.5t28.5 -1q3 0 96 6q-3 -24 -7.5 -96.5t-4.5 -85.5q75 106 153.5 154.5t196.5 48.5q201 0 321.5 -141t120.5 -371q0 -85 -16 -164.5t-53 -153.5t-91 -129t-135.5 -88t-181.5 -33q-103 0 -174 31.5 t-147 130.5q0 -409 18 -584q-54 7 -94 7q-53 0 -107 -7zM322 489q0 -86 15 -158t47.5 -134.5t93 -98t143.5 -35.5q149 0 227 113t78 336q0 446 -299 446q-85 0 -147 -40t-95 -109.5t-48 -148.5t-15 -171z" />
<glyph unicode="q" horiz-adv-x="1198" d="M78 539q0 230 120.5 371t321.5 141q118 0 196.5 -48.5t153.5 -154.5q0 13 -4.5 85.5t-7.5 96.5q93 -6 96 -6l105 6q-19 -185 -19 -614v-252q0 -430 19 -615q-54 7 -107 7q-40 0 -94 -7q19 185 19 584q-76 -99 -147.5 -130.5t-174.5 -31.5q-100 0 -181.5 33t-135.5 88 t-91 129t-53 153.5t-16 164.5zM272 512q0 -222 78.5 -335.5t227.5 -113.5q83 0 143.5 35.5t93 98t47.5 134.5t15 158q0 73 -8.5 137.5t-30.5 126.5t-56 106.5t-88 71.5t-123 27q-299 0 -299 -446z" />
<glyph unicode="r" horiz-adv-x="686" d="M139 -6q19 185 19 518q0 335 -19 518q12 -1 35.5 -2.5t41 -2.5t28.5 -1q3 0 96 6q-12 -118 -12 -190q137 211 278 211q30 0 80 -15q-37 -102 -37 -182q-74 27 -112 27q-52 0 -90.5 -19t-62 -50.5t-38 -80t-19.5 -100.5t-5 -119q0 -342 18 -518q-46 6 -94 6q-60 0 -107 -6 z" />
<glyph unicode="s" horiz-adv-x="841" d="M88 55q38 67 66 150q54 -89 112.5 -121.5t130.5 -32.5q92 0 152.5 51t60.5 138q0 39 -14 70t-32.5 50t-55 36t-64 26t-75.5 22q-128 34 -195.5 102t-67.5 187q0 144 96.5 231t252.5 87q77 0 130.5 -17t110.5 -53q-40 -87 -61 -150q-78 140 -211 140q-75 0 -124.5 -46.5 t-49.5 -121.5q0 -46 17.5 -81.5t50.5 -59.5t70 -39t85 -27q73 -18 120 -38t86 -51.5t57 -78t18 -111.5q0 -96 -56 -176t-147 -125t-193 -45q-157 0 -270 84z" />
<glyph unicode="t" horiz-adv-x="638" d="M41 915q4 36 4 70q0 27 -4 55q44 -16 137 -16q0 124 -18 215q113 38 200 88q-18 -105 -18 -303q192 0 233 16q-4 -36 -4 -57q0 -28 4 -68q-72 17 -233 17v-658q0 -118 30.5 -169.5t123.5 -51.5q46 0 82 25v-64q-68 -43 -156 -43q-124 0 -184 65t-60 204v692q-25 0 -71 -5 t-66 -12z" />
<glyph unicode="u" horiz-adv-x="1163" d="M139 1030q12 -1 35.5 -2.5t41 -2.5t28.5 -1q3 0 96 6q-18 -176 -18 -518q0 -227 64 -325.5t189 -98.5q52 0 93.5 15.5t69 39.5t47.5 62t31 74t17 85.5t7.5 87.5t1.5 87q0 306 -19 491q12 -1 35.5 -2.5t41 -2.5t28.5 -1q3 0 96 6q-18 -173 -18 -518q0 -342 18 -518 q-46 6 -94 6q-60 0 -107 -6q11 96 11 160q-49 -89 -138 -136t-190 -47q-153 0 -253.5 91.5t-100.5 244.5q0 24 3 97t3 108q0 333 -19 518z" />
<glyph unicode="v" d="M25 1028q74 -4 118 -4q53 0 105 6q35 -126 139 -385t191 -434q92 212 188 466.5t115 352.5q47 -6 92 -6q30 0 84 4q-53 -72 -205 -422.5t-246 -609.5q-36 4 -63 4q-29 0 -70 -6q-79 213 -242.5 596t-205.5 438z" />
<glyph unicode="w" horiz-adv-x="1654" d="M25 1030q53 -6 112 -6t111 6q27 -130 110 -374.5t152 -413.5q61 150 144 399.5t118 388.5q35 -6 74 -6q38 0 72 6q23 -89 115.5 -358.5t152.5 -433.5q187 456 272 792q44 -6 88 -6t84 6q-95 -173 -226 -495t-200 -541q-30 6 -61 6q-32 0 -62 -6q-24 96 -60 209.5 t-63 188.5t-78 211.5t-71 191.5q-14 -39 -55 -153t-60.5 -170t-51.5 -149t-56 -172t-45 -157q-27 6 -64 6t-61 -6q-160 506 -391 1036z" />
<glyph unicode="x" horiz-adv-x="1032" d="M25 -6q195 244 397 506q-64 94 -196.5 273.5t-194.5 256.5q58 -6 125 -6q52 0 98 6q37 -66 120 -186.5t152 -212.5q203 258 283 399q38 -6 78 -6q41 0 76 6q-56 -62 -194 -231.5t-189 -239.5q72 -102 215.5 -292.5t212.5 -272.5q-56 6 -115 6q-75 0 -133 -6 q-32 69 -116.5 196t-168.5 236q-38 -47 -152.5 -211.5t-148.5 -220.5q-38 6 -74 6q-40 0 -75 -6z" />
<glyph unicode="y" horiz-adv-x="1077" d="M25 1030q56 -6 127 -6q62 0 114 6q11 -95 104 -333t203 -480q87 200 189 474.5t102 338.5q53 -6 105 -6q43 0 84 6q-27 -29 -181.5 -365t-303 -692.5t-154.5 -423.5q-47 7 -84 7q-51 0 -105 -7q44 61 130.5 219.5t119.5 227.5q-110 273 -254 606t-196 428z" />
<glyph unicode="z" horiz-adv-x="1050" d="M51 6q154 206 396.5 538.5t275.5 387.5q-397 0 -559 -19q6 60 6 64q0 3 -6 63q188 -16 485 -16q216 0 330 16l20 -30q-102 -133 -336 -445.5t-350 -472.5h252q125 0 246 6t158 11q-4 -40 -4 -72q0 -25 4 -53q-112 16 -371 16h-254q-127 0 -274 -16z" />
<glyph unicode="{" horiz-adv-x="960" d="M197 559q6 24 6 41q0 20 -6 41l71 12q49 9 84 47t53 94t25.5 111.5t7.5 114.5v272q0 178 91.5 275.5t279.5 122.5l18 -66l-51 -12q-44 -11 -76.5 -42.5t-50.5 -71.5t-28.5 -97t-13.5 -105t-3 -108v-176q0 -66 -3.5 -108.5t-15.5 -87.5t-35.5 -77t-62.5 -64t-96 -61v-28 q57 -29 96 -61t62.5 -64t35.5 -77t15.5 -87.5t3.5 -108.5v-176q0 -60 3 -108t13.5 -105t28.5 -97t50.5 -71.5t76.5 -42.5l51 -12l-18 -65q-188 25 -279.5 122t-91.5 275v272q0 59 -7.5 114.5t-25.5 111.5t-53 94t-84 47z" />
<glyph unicode="|" d="M485 -530v2162h109v-2162h-109z" />
<glyph unicode="}" horiz-adv-x="960" d="M133 -424l51 12q44 11 76.5 42.5t50.5 71.5t28.5 97t13.5 105t3 108v176q0 66 3.5 108.5t15.5 87.5t35.5 77t62.5 64t96 61v28q-57 29 -96 61t-62.5 64t-35.5 77t-15.5 87.5t-3.5 108.5v176q0 60 -3 108t-13.5 105t-28.5 97t-50.5 71.5t-76.5 42.5l-51 12l19 66 q188 -25 279 -122.5t91 -275.5v-272q0 -59 7.5 -114.5t25.5 -111.5t53 -94t84 -47l72 -12q-6 -21 -6 -41q0 -17 6 -41l-72 -12q-49 -9 -84 -47t-53 -94t-25.5 -111.5t-7.5 -114.5v-272q0 -178 -91 -275t-279 -122z" />
<glyph unicode="~" horiz-adv-x="2162" d="M422 530l20 33q121 213 346 213q65 0 152.5 -24t159 -52.5t155.5 -52.5t144 -24q108 0 229 116l113 -94q-151 -180 -355 -180q-66 0 -142.5 24.5t-136 53.5t-139.5 53.5t-153 24.5q-170 0 -264 -168z" />
<glyph unicode="&#xa9;" d="M39 1122q0 96 36.5 187t101 162t160.5 114t206 43q106 0 200.5 -39.5t161.5 -107t106.5 -161.5t39.5 -198q0 -96 -36 -187t-100 -162.5t-160.5 -115t-209.5 -43.5q-138 0 -254 66.5t-184 183.5t-68 258zM115 1122q0 -180 123.5 -306t306.5 -126q179 0 304.5 129 t125.5 303q0 118 -58.5 217t-157.5 156t-214 57t-213 -53.5t-157.5 -153t-59.5 -223.5zM240 1114q0 142 89.5 230t237.5 88q128 0 197 -41q-13 -28 -23 -70h-12q-67 72 -168 72q-59 0 -104.5 -23.5t-72 -64t-39.5 -89t-13 -102.5q0 -70 22.5 -128t76 -97t130.5 -39 q51 0 90.5 13t93.5 57l7 -9q-9 -31 -9 -53q-49 -28 -92.5 -37.5t-101.5 -9.5q-137 0 -223 80.5t-86 222.5z" />
<glyph unicode="&#xab;" horiz-adv-x="802" d="M84 516q171 235 246 373q36 -68 106 -86q-45 -58 -107.5 -147.5t-92.5 -139.5q22 -35 99 -147t107 -152q-66 -17 -112 -72q-150 251 -246 371zM395 516q171 235 246 373q36 -68 107 -86q-125 -161 -201 -287q21 -34 98.5 -146t108.5 -153q-68 -17 -113 -72 q-150 251 -246 371z" />
<glyph unicode="&#xad;" horiz-adv-x="745" d="M37 483v115h680v-115h-680z" />
<glyph unicode="&#xae;" d="M39 1122q0 72 21.5 144.5t64.5 137.5t102.5 115t141 79.5t174.5 29.5q142 0 259 -68t183 -184t66 -254q0 -139 -68 -256t-184.5 -184.5t-253.5 -67.5q-133 0 -247.5 61t-186.5 179t-72 268zM115 1122q0 -91 34.5 -172t93 -137.5t137.5 -89.5t165 -33q119 0 218.5 60 t155.5 159t56 213q0 113 -55.5 211.5t-155 158.5t-219.5 60q-182 0 -306 -122t-124 -308zM348 834q6 144 6 305q0 170 -6 284q66 -4 96 -4q13 0 54 2t57 2q75 0 122.5 -36t47.5 -97q0 -65 -47.5 -109t-130.5 -53q33 -38 116.5 -145t122.5 -149q-28 4 -55 4q-25 0 -53 -4 q-76 110 -221 286h-31q0 -142 6 -286q-20 4 -41 4q-23 0 -43 -4zM426 1161h27q31 0 60.5 6t57.5 18.5t45 36.5t17 56q0 102 -139 102q-32 0 -68 -4v-215z" />
<glyph unicode="&#xbb;" horiz-adv-x="802" d="M47 217q31 41 108.5 153t98.5 146q-76 126 -201 287q71 18 107 86q75 -138 246 -373q-96 -120 -246 -371q-45 55 -113 72zM358 217q31 41 108.5 153t98.5 146q-30 50 -92.5 139.5t-107.5 147.5q70 18 106 86q75 -138 246 -373q-96 -120 -246 -371q-45 55 -113 72z" />
<glyph unicode="&#x401;" d="M197 -6q16 300 16 794q0 566 -16 695q70 -6 303 -6h227q124 0 252 16q-6 -30 -6 -68q0 -43 6 -73q-172 16 -401 16q-122 0 -168 -4q-13 -271 -13 -287v-252h156q203 0 371 19q-9 -40 -9 -72q0 -16 9 -72q-97 17 -527 17v-299q0 -181 9 -309h198q123 0 377 16 q-6 -75 -6 -80q0 -21 6 -51q-126 6 -360 6h-152q-173 0 -272 -6zM272 1726q0 46 31 77.5t80 31.5q111 0 111 -109q0 -50 -29.5 -81t-81.5 -31t-81.5 31t-29.5 81zM662 1726q0 47 30.5 78t79.5 31q111 0 111 -109q0 -50 -29.5 -81t-81.5 -31t-81 31t-29 81z" />
<glyph unicode="&#x402;" horiz-adv-x="1589" d="M51 1352q1 8 2.5 23.5t2.5 26.5t1 17q0 7 -1 19.5t-2.5 29t-2.5 25.5q272 -16 541 -16q305 0 577 16q-1 -9 -2.5 -25.5t-2.5 -29t-1 -19.5q0 -6 1 -17t2.5 -26.5t2.5 -23.5q-115 16 -438 16h-39q-8 -151 -8 -588q111 60 186.5 86.5t153.5 26.5q102 0 184.5 -28.5t134 -73 t86 -103t48.5 -115t14 -112.5q0 -120 -27 -210.5t-68.5 -143t-100 -85t-113 -43t-117.5 -10.5q-105 0 -223 66q23 23 46 71.5t25 71.5q36 -69 69 -97t83 -28q67 0 115 27t75.5 78.5t39.5 118t12 153.5q0 175 -77.5 261.5t-215.5 86.5q-148 0 -239 -57t-91 -121 q0 -315 16 -606q-99 6 -102 6q-16 0 -115 -6q17 319 17 794q0 429 -8 580h-39q-287 0 -402 -16z" />
<glyph unicode="&#x403;" horiz-adv-x="1067" d="M197 -6q16 300 16 794q0 566 -16 695q129 -6 299 -6h204q34 0 140 5.5t161 10.5q-6 -30 -6 -68q0 -43 6 -73q-172 16 -428 16h-170q-6 -46 -6 -580q0 -475 17 -794q-99 6 -103 6q-15 0 -114 -6zM553 1561q83 181 166 452q69 -14 112 -14q19 0 105 14l8 -37 q-186 -216 -319 -415h-72z" />
<glyph unicode="&#x404;" horiz-adv-x="1443" d="M92 725q0 235 102 413t285 273.5t420 95.5q288 0 483 -100l-51 -172h-33q-108 99 -207.5 137.5t-203.5 38.5q-163 0 -287 -77.5t-193 -205t-88 -290.5h316q235 0 543 16q-1 -10 -2.5 -26.5t-3 -29t-1.5 -16.5q0 -9 3 -35.5t4 -33.5q-282 16 -543 16h-322q0 -97 21 -190 t67 -179t112 -151t163 -104t213 -39q77 0 206 44t242 132l17 -23l-21 -129l-59 -31q-178 -90 -420 -90q-227 0 -399.5 91t-267.5 263t-95 402z" />
<glyph unicode="&#x405;" d="M98 100q33 106 35 156l27 4q145 -194 336 -194q136 0 219.5 82.5t83.5 222.5q0 101 -64 170.5t-164 109.5l-182 74q-130 52 -197 149t-67 230q0 97 36 175t98 127t142 75t170 26q195 0 330 -104q-37 -93 -55 -154l-27 -4q-90 166 -272 166q-112 0 -184 -65.5t-72 -182.5 q0 -110 58.5 -172t174.5 -106l191 -74q120 -45 185 -139.5t65 -220.5q0 -209 -148 -345.5t-371 -136.5q-98 0 -181.5 26t-166.5 105z" />
<glyph unicode="&#x406;" horiz-adv-x="610" d="M197 -6q16 300 16 794q0 566 -16 695q111 -6 116 -6q2 0 101 6q-17 -137 -17 -695q0 -475 17 -794q-99 6 -103 6q-15 0 -114 -6z" />
<glyph unicode="&#x407;" horiz-adv-x="610" d="M39 1718q0 46 31 77.5t80 31.5q110 0 110 -109q0 -50 -29 -81t-81 -31t-81.5 31t-29.5 81zM190 -6q17 319 17 794q0 558 -17 695q111 -6 117 -6q2 0 101 6q-17 -137 -17 -695q0 -475 17 -794q-99 6 -103 6q-16 0 -115 -6zM356 1718q0 46 31 77.5t80 31.5q111 0 111 -109 q0 -50 -29.5 -81t-81.5 -31t-81.5 31t-29.5 81z" />
<glyph unicode="&#x408;" horiz-adv-x="608" d="M-57 -238q50 6 87.5 16.5t66 34.5t48 46t32.5 69.5t20 85.5t11 114.5t4.5 135t0.5 166.5v528q0 394 -18 525q111 -6 116 -6q2 0 101 6q-15 -181 -15 -522v-535q0 -33 3 -130.5t3 -117.5q0 -470 -450 -493q0 39 -10 77z" />
<glyph unicode="&#x409;" horiz-adv-x="1892" d="M31 -6q51 89 302.5 695t313.5 788h123l205 -662q92 25 219 25q58 0 108 -2.5t117 -12.5t121 -27t109.5 -48t93 -73.5t61 -106t23.5 -142.5q0 -109 -44.5 -193.5t-124.5 -136t-184 -78t-229 -26.5q-150 0 -244 6l-354 1171q-242 -617 -452 -1177q-37 6 -78 6q-49 0 -86 -6 zM1012 692l186 -583q203 0 311.5 84t108.5 237q0 301 -408 301q-126 0 -198 -39z" />
<glyph unicode="&#x40a;" horiz-adv-x="2234" d="M197 -6q16 300 16 794q0 566 -16 695q111 -6 116 -6q2 0 101 6q-17 -137 -17 -625q301 -14 480 -14q113 0 342 16q0 486 -17 623q111 -6 117 -6q1 0 100 6q-16 -129 -16 -639h106q56 0 109.5 -3.5t121.5 -14.5t126 -29t115.5 -50t97.5 -73.5t65 -104t25 -137.5 q0 -145 -74.5 -245t-203.5 -146.5t-304 -46.5q-23 0 -95 3t-95 3q-119 0 -195 -6q17 319 17 725q-229 16 -353 16q-182 0 -469 -16q0 -406 17 -725q-99 6 -103 6q-15 0 -114 -6zM1403 725q0 -277 10 -612q98 -4 164 -4q383 0 383 331q0 151 -119 223t-336 72q-57 0 -102 -10 z" />
<glyph unicode="&#x40b;" horiz-adv-x="1589" d="M51 1352q1 8 2.5 23.5t2.5 26.5t1 17q0 7 -1 19.5t-2.5 29t-2.5 25.5q272 -16 541 -16q305 0 577 16q-1 -9 -2.5 -25.5t-2.5 -29t-1 -19.5q0 -6 1 -17t2.5 -26.5t2.5 -23.5q-115 16 -438 16h-39q-8 -151 -8 -588q112 61 187.5 88t152.5 27q102 0 184 -28.5t132 -72.5 t83.5 -103t46.5 -115t13 -113q0 -196 14 -469q-99 6 -102 6q-16 0 -115 -6q12 155 12 348q0 227 -65 332.5t-213 105.5q-127 0 -228.5 -53t-101.5 -127q0 -315 16 -606q-99 6 -102 6q-16 0 -115 -6q17 319 17 794q0 429 -8 580h-39q-287 0 -402 -16z" />
<glyph unicode="&#x40c;" horiz-adv-x="1320" d="M197 -6q16 300 16 794q0 566 -16 695q111 -6 116 -6q2 0 101 6q-17 -137 -17 -682q115 87 315 294.5t359 387.5q105 -6 109 -6q19 0 106 6q-385 -352 -696 -668q128 -154 349.5 -407.5t367.5 -413.5q-65 6 -133 6q-86 0 -138 -6q-205 280 -639 751q0 -432 17 -751 q-99 6 -103 6q-15 0 -114 -6zM647 1561q83 181 166 452q69 -14 113 -14q18 0 104 14l8 -37q-186 -216 -319 -415h-72z" />
<glyph unicode="&#x40e;" horiz-adv-x="1441" d="M18 1483q56 -6 125 -6t125 6q31 -68 119.5 -230t231 -417t184.5 -332q78 155 227 504t197 475q37 -6 80 -6q51 0 98 6q-126 -243 -368.5 -755t-377.5 -812q-48 6 -65 6q-11 0 -80 -6q127 229 197 391q-22 37 -218.5 380.5t-313.5 540.5t-161 255zM387 1726q27 76 27 193 h12q53 -118 123 -166.5t207 -48.5q132 0 212 51t134 164h12q0 -93 31 -188q-176 -115 -387 -115q-113 0 -195 26.5t-176 83.5z" />
<glyph unicode="&#x40f;" horiz-adv-x="1675" d="M197 -6q16 300 16 794q0 566 -16 695q111 -6 116 -6q2 0 101 6q-17 -137 -17 -695q0 -436 11 -651q270 -18 458 -18q97 0 402 18q10 250 10 651q0 566 -16 695q111 -6 116 -6q2 0 101 6q-17 -137 -17 -695q0 -475 17 -794q-132 6 -387 6q-121 0 -171.5 -75t-50.5 -263 h-65q0 189 -50 263.5t-171 74.5q-282 0 -387 -6z" />
<glyph unicode="&#x410;" horiz-adv-x="1441" d="M31 -4q54 92 164 327t205 451t196.5 449.5t110.5 253.5h51q88 -220 321 -756t332 -725q-66 4 -115 4q-52 0 -118 -4q-11 27 -104 258t-124 299q-119 18 -284 18q-146 0 -254 -18q-76 -153 -217 -557q-46 4 -78 4q-46 0 -86 -4zM475 694q114 -14 207 -14q84 0 203 14 q-47 126 -203 477z" />
<glyph unicode="&#x411;" horiz-adv-x="1320" d="M193 -6q16 300 16 794q0 566 -16 695q48 -2 144 -7t163 -8.5t88 -3.5q165 0 481 19q-6 -38 -6 -74q0 -1 6 -70q-83 11 -204.5 20t-172.5 9q-164 0 -299 -12v-514h105q53 0 104 -3t119.5 -14t126.5 -28.5t117 -49t100.5 -73.5t67.5 -104.5t26 -139.5q0 -110 -44 -195 t-123.5 -137t-184.5 -78.5t-232 -25.5q-12 0 -113 3t-151 3q-69 0 -118 -6zM393 113q106 -4 174 -4q183 0 283 83t100 240q0 167 -129.5 234t-427.5 67v-620z" />
<glyph unicode="&#x412;" horiz-adv-x="1327" d="M197 -6q16 300 16 794q0 566 -16 695q153 -6 209 -6q30 0 102 3t88 3q118 0 205.5 -13.5t162 -47t113.5 -98t39 -159.5q0 -134 -82 -220t-246 -142q107 -22 181.5 -58.5t116 -85.5t59.5 -104.5t18 -124.5q0 -110 -44.5 -194.5t-124 -136.5t-183.5 -78.5t-229 -26.5 q-41 0 -138 3t-125 3q-35 0 -122 -6zM397 113q90 -4 174 -4q81 0 148.5 17.5t121 55t83.5 101t30 149.5q0 73 -22.5 125.5t-77 93.5t-154 61.5t-245.5 20.5h-58v-620zM397 846q46 -4 109 -4q178 0 289.5 73t111.5 209q0 63 -26.5 111t-73.5 76.5t-106.5 42.5t-131.5 14 q-86 0 -172 -4v-518z" />
<glyph unicode="&#x413;" horiz-adv-x="1067" d="M197 -6q16 300 16 794q0 566 -16 695q129 -6 299 -6h204q34 0 140 5.5t161 10.5q-6 -30 -6 -68q0 -43 6 -73q-172 16 -428 16h-170q-6 -46 -6 -580q0 -475 17 -794q-99 6 -103 6q-15 0 -114 -6z" />
<glyph unicode="&#x414;" horiz-adv-x="1703" d="M37 135l180 -22q208 408 617 1364h51q133 -317 323.5 -754t268.5 -604l165 14l-43 -467h-63q0 101 -12 167.5t-37.5 102.5t-57.5 50t-79 14h-1018q-67 0 -106.5 -26.5t-61 -100.5t-21.5 -207h-63zM367 115q159 -6 174 -6h618q59 0 96 6q-213 538 -446 1061 q-376 -887 -442 -1061z" />
<glyph unicode="&#x415;" d="M197 -6q16 300 16 794q0 566 -16 695q70 -6 303 -6h227q124 0 252 16q-6 -30 -6 -68q0 -43 6 -73q-172 16 -401 16q-122 0 -168 -4q-13 -271 -13 -287v-252h156q203 0 371 19q-9 -40 -9 -72q0 -16 9 -72q-97 17 -527 17v-299q0 -181 9 -309h198q123 0 377 16 q-6 -75 -6 -80q0 -21 6 -51q-126 6 -360 6h-152q-173 0 -272 -6z" />
<glyph unicode="&#x416;" horiz-adv-x="2027" d="M10 -6l719 821q-138 143 -342.5 338.5t-353.5 329.5q46 -6 110 -6q16 0 103 6q59 -67 163 -180.5t264 -274.5t249 -227q0 545 -17 682q111 -6 117 -6q1 0 100 6q-16 -129 -16 -682q89 66 249 227t264 274.5t163 180.5q87 -6 102 -6q65 0 111 6q-151 -136 -355.5 -331 t-341.5 -337l719 -821q-61 6 -127 6q-96 0 -145 -6q-100 141 -320 399t-319 350q0 -461 16 -749q-99 6 -102 6q-16 0 -115 -6q17 306 17 749q-99 -92 -319 -350t-320 -399q-49 6 -146 6q-65 0 -127 -6z" />
<glyph unicode="&#x417;" horiz-adv-x="1175" d="M51 125q30 87 35 156l29 4q87 -116 180 -167.5t209 -51.5q168 0 258 89t90 259q0 145 -97.5 227t-267.5 82q-64 0 -176 -14q6 30 6 63q0 43 -8 70q14 -3 81 -10t102 -7q131 0 221 92t90 216q0 83 -48.5 148t-119.5 97.5t-148 32.5q-116 0 -189 -44t-130 -148l-33 6 q-24 93 -49 149q68 66 174 99.5t227 33.5q81 0 151 -10t137.5 -36.5t115.5 -67.5t77 -106.5t29 -149.5q0 -43 -7.5 -80.5t-29 -80t-57 -76.5t-96 -65t-141.5 -51q204 -31 299.5 -128.5t95.5 -241.5q0 -87 -31.5 -160.5t-85 -125.5t-125.5 -88.5t-152.5 -53.5t-166.5 -17 q-278 0 -449 156z" />
<glyph unicode="&#x418;" horiz-adv-x="1740" d="M197 -6q16 300 16 794q0 566 -16 695q111 -6 116 -6q2 0 101 6q-17 -137 -17 -695v-458q264 264 574.5 598t476.5 555q18 -6 43 -6q26 0 53 6q-16 -129 -16 -695q0 -494 16 -794q-99 6 -102 6q-16 0 -115 -6q16 300 16 794v338q-219 -202 -526 -534t-534 -598 q-15 6 -45 6q-26 0 -41 -6z" />
<glyph unicode="&#x419;" horiz-adv-x="1740" d="M197 -6q16 300 16 794q0 566 -16 695q111 -6 116 -6q2 0 101 6q-17 -137 -17 -695v-458q264 264 574.5 598t476.5 555q18 -6 43 -6q26 0 53 6q-16 -129 -16 -695q0 -494 16 -794q-99 6 -102 6q-16 0 -115 -6q16 300 16 794v338q-219 -202 -526 -534t-534 -598 q-15 6 -45 6q-26 0 -41 -6zM537 1726q26 74 26 193h12q53 -118 123 -166.5t207 -48.5q132 0 212 51t134 164h13q0 -96 30 -188q-176 -115 -387 -115q-113 0 -194.5 26.5t-175.5 83.5z" />
<glyph unicode="&#x41a;" horiz-adv-x="1320" d="M197 -6q16 300 16 794q0 566 -16 695q111 -6 116 -6q2 0 101 6q-17 -137 -17 -682q115 87 315 294.5t359 387.5q105 -6 109 -6q19 0 106 6q-385 -352 -696 -668q128 -154 349.5 -407.5t367.5 -413.5q-65 6 -133 6q-86 0 -138 -6q-205 280 -639 751q0 -432 17 -751 q-99 6 -103 6q-15 0 -114 -6z" />
<glyph unicode="&#x41b;" horiz-adv-x="1441" d="M31 -4q54 92 164 327t205 451t196.5 449.5t110.5 253.5h51q88 -220 321 -756t332 -725q-66 4 -115 4q-52 0 -118 -4q-83 214 -235.5 574t-260.5 601q-98 -214 -246 -563t-241 -612q-46 4 -78 4q-46 0 -86 -4z" />
<glyph unicode="&#x41c;" horiz-adv-x="1923" d="M86 -6q38 193 108.5 692.5t104.5 790.5h41q84 -176 316 -612.5t313 -559.5q67 125 635 1172h38q36 -355 92 -824t87 -659q-49 6 -101 6q-58 0 -108 -6q-9 125 -49 511t-64 576q-61 -101 -242 -451t-317 -630h-39q-95 196 -257.5 514t-287.5 549q-28 -174 -67 -540.5 t-39 -528.5q-38 6 -78 6q-52 0 -86 -6z" />
<glyph unicode="&#x41d;" horiz-adv-x="1677" d="M197 -6q16 300 16 794q0 566 -16 695q111 -6 116 -6q2 0 101 6q-17 -137 -17 -625q301 -14 480 -14q174 0 403 16q0 494 -16 623q111 -6 116 -6q2 0 101 6q-17 -137 -17 -695q0 -475 17 -794q-99 6 -103 6q-15 0 -114 -6q16 300 16 725q-229 16 -414 16q-182 0 -469 -16 q0 -406 17 -725q-99 6 -103 6q-15 0 -114 -6z" />
<glyph unicode="&#x41e;" horiz-adv-x="1796" d="M92 727q0 228 105 407t288.5 276t413.5 97q172 0 319.5 -51.5t255 -146t169 -236t61.5 -313.5q0 -223 -104 -403.5t-291.5 -284t-423.5 -103.5q-170 0 -315 52t-251.5 148t-166.5 239.5t-60 318.5zM313 727q0 -107 22.5 -204t70 -180.5t115 -145t163 -96.5t209.5 -35 q266 0 428 185.5t162 502.5q0 304 -150.5 480.5t-429.5 176.5q-275 0 -432.5 -182t-157.5 -502z" />
<glyph unicode="&#x41f;" horiz-adv-x="1714" d="M197 -6q16 300 16 794q0 566 -16 695q252 -19 669 -19q379 0 652 19q-17 -137 -17 -695q0 -475 17 -794q-99 6 -103 6q-16 0 -115 -6q17 319 17 794q0 403 -8 551q-246 17 -443 17q-237 0 -460 -17q-9 -111 -9 -551q0 -475 17 -794q-99 6 -103 6q-15 0 -114 -6z" />
<glyph unicode="&#x420;" horiz-adv-x="1239" d="M197 -6q16 300 16 794q0 566 -16 695q204 -6 206 -6q38 0 116 3t102 3q281 0 403.5 -88.5t122.5 -284.5q0 -98 -32.5 -174t-87.5 -125.5t-134.5 -81.5t-168 -45.5t-192.5 -13.5q-57 0 -135 8v-354q0 -186 17 -330q-52 6 -105 6q-63 0 -112 -6zM397 786q50 -8 86 -8 q217 0 336 85.5t119 246.5q0 74 -27 125.5t-78 80t-112.5 40.5t-140.5 12q-140 0 -183 -6v-576z" />
<glyph unicode="&#x421;" horiz-adv-x="1443" d="M92 725q0 357 221.5 569.5t585.5 212.5q291 0 483 -100l-51 -172h-33q-195 176 -411 176q-119 0 -216 -39t-162.5 -104.5t-110.5 -154t-65 -185.5t-20 -201q0 -100 21 -194t67 -179.5t112.5 -149t163 -101t212.5 -37.5q246 0 448 176l17 -23l-21 -129 q-120 -67 -234.5 -94t-244.5 -27q-343 0 -552.5 204t-209.5 552z" />
<glyph unicode="&#x422;" horiz-adv-x="1183" d="M51 1352q1 8 2.5 23.5t2.5 26.5t1 17q0 7 -1 19.5t-2.5 29t-2.5 25.5q272 -16 541 -16t541 16q-1 -9 -4 -37t-3 -37q0 -8 3 -33.5t4 -33.5q-115 16 -402 16h-39q-8 -151 -8 -580q0 -494 16 -794q-99 6 -102 6q-16 0 -115 -6q17 319 17 794q0 429 -8 580h-39 q-287 0 -402 -16z" />
<glyph unicode="&#x423;" horiz-adv-x="1441" d="M18 1483q56 -6 125 -6t125 6q31 -68 119.5 -230t231 -417t184.5 -332q78 155 227 504t197 475q37 -6 80 -6q51 0 98 6q-126 -243 -368.5 -755t-377.5 -812q-48 6 -65 6q-11 0 -80 -6q127 229 197 391q-22 37 -218.5 380.5t-313.5 540.5t-161 255z" />
<glyph unicode="&#x424;" horiz-adv-x="1949" d="M92 770q0 120 41.5 222.5t115 175.5t172.5 124t214.5 76t241.5 25l-11 168q9 0 55 -3.5t62 -3.5q10 0 49 3t51 4l-10 -168q126 0 241.5 -25t214.5 -76t172.5 -123.5t115 -174t41.5 -220.5q0 -143 -64 -266t-172 -206.5t-250 -131t-297 -47.5l8 -186q-99 6 -102 6 q-16 0 -115 -6l8 186q-155 0 -297 47.5t-249.5 130.5t-171.5 205.5t-64 263.5zM313 770q0 -111 42 -214.5t115 -181.5t179.5 -124.5t227.5 -46.5q6 126 6 624q0 360 -4 486q-252 0 -409 -149.5t-157 -393.5zM1067 827q0 -498 6 -624q161 0 291.5 79.5t201 208.5t70.5 279 q0 241 -157 392t-408 151q-4 -126 -4 -486z" />
<glyph unicode="&#x425;" horiz-adv-x="1320" d="M68 -6q68 94 270 397.5t229 356.5q-56 99 -239.5 393.5t-223.5 341.5q82 -6 138 -6q64 0 108 6q57 -110 161.5 -293t166.5 -283q95 139 209 326t145 250q44 -6 94 -6q46 0 80 6q-122 -151 -465 -668q60 -109 235 -394t271 -427q-67 6 -135 6q-4 0 -121 -6 q-106 225 -360 657q-247 -388 -389 -657q-38 6 -80 6q-54 0 -94 -6z" />
<glyph unicode="&#x426;" horiz-adv-x="1675" d="M197 -6q16 300 16 794q0 566 -16 695q111 -6 116 -6q2 0 101 6q-17 -137 -17 -695q0 -436 11 -651q270 -18 458 -18q97 0 402 18q10 250 10 651q0 566 -16 695q111 -6 116 -6q2 0 101 6q-17 -137 -17 -695q0 -439 11 -673l163 14l-45 -467h-61q0 62 -3 107t-12.5 81.5 t-20 60t-33.5 41t-44 26.5t-60.5 14.5t-74.5 6.5t-94 1h-604q-282 0 -387 -6z" />
<glyph unicode="&#x427;" horiz-adv-x="1470" d="M150 1483q111 -6 116 -6q2 0 101 6q-15 -108 -15 -367q0 -219 83 -331.5t274 -112.5q56 0 108 7t104.5 23t93 47.5t58.5 75.5q0 529 -16 658q111 -6 117 -6q1 0 100 6q-17 -137 -17 -695q0 -475 17 -794q-99 6 -103 6q-15 0 -114 -6q16 300 16 678q-108 -58 -196 -86.5 t-183 -28.5q-135 0 -238 37.5t-166 105t-94.5 156t-31.5 195.5q0 300 -14 432z" />
<glyph unicode="&#x428;" horiz-adv-x="2379" d="M197 -6q16 300 16 794q0 566 -16 695q111 -6 116 -6q2 0 101 6q-17 -137 -17 -695q0 -412 11 -649q187 -20 395 -20h284q11 320 11 669q0 558 -17 695q111 -6 117 -6q1 0 100 6q-16 -129 -16 -695q0 -378 10 -669h262q281 0 418 20q10 284 10 649q0 566 -16 695 q111 -6 117 -6q1 0 100 6q-16 -129 -16 -695q0 -494 16 -794q-77 6 -307 6q-37 0 -300 -3t-374 -3q-90 0 -369.5 3t-418.5 3q-150 0 -217 -6z" />
<glyph unicode="&#x429;" horiz-adv-x="2379" d="M197 -6q16 300 16 794q0 566 -16 695q111 -6 116 -6q2 0 101 6q-17 -137 -17 -695q0 -412 11 -649q187 -20 395 -20h284q11 320 11 669q0 558 -17 695q111 -6 117 -6q1 0 100 6q-16 -129 -16 -695q0 -378 10 -669h262q281 0 418 20q10 284 10 649q0 566 -16 695 q111 -6 117 -6q1 0 100 6q-16 -129 -16 -695q0 -460 10 -673l164 14l-45 -467h-62q0 62 -3 107t-12.5 81.5t-20 60t-33.5 41t-44 26.5t-60.5 14.5t-74.5 6.5t-94 1q-37 0 -308 -3t-382 -3q-90 0 -369.5 3t-418.5 3q-150 0 -217 -6z" />
<glyph unicode="&#x42a;" horiz-adv-x="1427" d="M45 1341q4 32 4 74q0 36 -4 68q313 -15 356 -15q15 0 97 5.5t114 9.5q-16 -129 -16 -641q58 8 106 8q62 0 110.5 -2t120.5 -11.5t126.5 -25.5t114.5 -47.5t98.5 -74t64 -109t25.5 -148.5q0 -145 -74.5 -245t-203.5 -146.5t-304 -46.5q-22 0 -95 3t-95 3q-118 0 -195 -6 q17 319 17 794q0 412 -9 568q-7 0 -94 -2.5t-162 -5.5t-102 -7zM596 725q0 -277 10 -612q98 -4 164 -4q185 0 284 84.5t99 246.5q0 72 -21 125t-58 86.5t-95.5 53.5t-125.5 28t-155 8q-59 0 -102 -16z" />
<glyph unicode="&#x42b;" horiz-adv-x="1830" d="M197 -6q16 300 16 794q0 566 -16 695q111 -6 116 -6q2 0 101 6q-17 -137 -17 -641q58 8 107 8q62 0 110.5 -2t120.5 -11.5t126.5 -25.5t114 -47.5t98 -74t64 -109t25.5 -148.5q0 -216 -157 -327t-424 -111q-22 0 -95 3t-96 3q-117 0 -194 -6zM397 725q0 -243 11 -612 q98 -4 163 -4q185 0 284 84.5t99 246.5q0 72 -21 125t-58 86.5t-95.5 53.5t-125 28t-154.5 8q-60 0 -103 -16zM1417 -6q17 319 17 794q0 558 -17 695q111 -6 117 -6q1 0 100 6q-16 -129 -16 -695q0 -494 16 -794q-99 6 -102 6q-16 0 -115 -6z" />
<glyph unicode="&#x42c;" horiz-adv-x="1228" d="M197 -6q16 300 16 794q0 566 -16 695q111 -6 116 -6q2 0 101 6q-17 -137 -17 -641q58 8 107 8q62 0 110.5 -2t120.5 -11.5t126.5 -25.5t114 -47.5t98 -74t64 -109t25.5 -148.5q0 -216 -157 -327t-424 -111q-22 0 -95 3t-96 3q-117 0 -194 -6zM397 725q0 -243 11 -612 q98 -4 163 -4q185 0 284 84.5t99 246.5q0 72 -21 125t-58 86.5t-95.5 53.5t-125 28t-154.5 8q-60 0 -103 -16z" />
<glyph unicode="&#x42d;" horiz-adv-x="1441" d="M106 1409q112 59 225.5 78.5t256.5 19.5q360 0 561 -201.5t201 -553.5q0 -358 -219 -570.5t-588 -212.5q-95 0 -227.5 41t-194.5 103q20 82 20 180q78 -109 207.5 -168t235.5 -59q109 0 199.5 36.5t152.5 99.5t104.5 148t62 180t19.5 199h-368q-211 0 -443 -16q6 35 6 69 q0 38 -6 72q320 -16 570 -16h243q-10 94 -29.5 171.5t-58 154.5t-94 129.5t-141.5 85t-195 32.5q-281 0 -418 -174h-32q-15 75 -50 172z" />
<glyph unicode="&#x42e;" horiz-adv-x="2318" d="M197 -6q16 300 16 794q0 566 -16 695q111 -6 116 -6q2 0 101 6q-17 -137 -17 -627q74 -4 119 -4q49 0 111 4q3 42 15.5 93t41.5 114.5t69.5 124.5t104.5 119.5t142 102t187 70.5t234 27q173 0 320 -50t255 -143.5t169 -235.5t61 -318q0 -174 -63 -322.5t-172.5 -251 t-260.5 -160t-323 -57.5q-230 0 -410.5 96t-280.5 269t-100 393v18q-87 5 -112 5q-34 0 -107 -5q0 -432 17 -751q-99 6 -103 6q-15 0 -114 -6zM821 729q0 -137 40 -256.5t113.5 -210.5t187.5 -143.5t253 -52.5q148 0 263 55t185 150.5t106 218t36 264.5q0 106 -21 201.5 t-66.5 179t-112.5 145t-163.5 96.5t-214.5 35q-274 0 -440 -183.5t-166 -498.5z" />
<glyph unicode="&#x42f;" horiz-adv-x="1327" d="M20 -6q235 260 596 708q-185 17 -292 121.5t-107 257.5q0 79 27.5 149.5t81.5 128t144.5 91t205.5 33.5q30 0 114.5 -3t106.5 -3q145 0 233 6q-16 -129 -16 -695q0 -494 16 -794q-99 6 -102 6q-16 0 -115 -6q17 319 17 708h-80q-108 -112 -269 -321t-284 -387 q-65 6 -133 6q-89 0 -144 -6zM408 1139q0 -65 23.5 -120t63.5 -93.5t92 -65.5t109 -40t115 -13q65 0 119 8q0 407 -8 543q-132 26 -220 26q-123 0 -208.5 -65.5t-85.5 -179.5z" />
<glyph unicode="&#x430;" horiz-adv-x="1046" d="M78 242q0 244 325 305l209 39q55 9 81 28t26 56q0 82 -16.5 137.5t-50.5 86.5t-77.5 43.5t-105.5 12.5q-97 0 -163 -36.5t-113 -131.5h-25v127q57 70 153.5 106t196.5 36q169 0 267 -89t98 -274v-508q0 -75 15.5 -102t49.5 -27q25 0 49 8l13 -49q-78 -39 -154 -39 q-103 0 -127 90l-12 45q-82 -65 -169 -100t-163 -35q-141 0 -224 71.5t-83 199.5zM272 272q0 -182 199 -182q136 0 248 117v315l-135 -20q-63 -10 -112 -24.5t-97.5 -40t-75.5 -67.5t-27 -98z" />
<glyph unicode="&#x431;" horiz-adv-x="1206" d="M139 672q0 201 54.5 348.5t209.5 310.5q84 88 187 138t252 63q76 7 126 31.5t50 66.5h63l-51 -129q-19 -49 -45.5 -82t-62.5 -51t-69 -27t-83 -16q-114 -16 -195.5 -44.5t-131 -65.5t-78 -90.5t-38.5 -109t-10 -132.5v-60q44 97 147 162.5t212 65.5q200 0 326 -137.5 t126 -381.5q0 -112 -32.5 -212.5t-93.5 -178.5t-158 -124t-217 -46q-265 0 -376.5 165t-111.5 536zM334 506q0 -80 15.5 -154t47.5 -141t91 -107.5t137 -40.5q151 0 230 126.5t79 336.5q0 130 -30 224.5t-99.5 151t-173.5 56.5q-64 0 -116 -28t-85 -72.5t-55.5 -105 t-31.5 -121.5t-9 -125z" />
<glyph unicode="&#x432;" horiz-adv-x="1071" d="M139 -6q19 185 19 518q0 335 -19 518q61 -6 135 -6q37 0 131.5 3t120.5 3q194 0 301 -66.5t107 -185.5q0 -53 -22.5 -96.5t-59 -70.5t-76 -43t-80.5 -23v-13q33 -4 53.5 -7.5t53.5 -12.5t54 -19.5t46.5 -29.5t40.5 -42.5t25 -58t10 -77.5q0 -68 -33.5 -122t-82.5 -84.5 t-112 -50.5t-115 -27t-99 -7q-37 0 -121.5 3t-104.5 3q-101 0 -172 -6zM322 479q0 -201 10 -385q90 -20 190 -20q119 0 192.5 60.5t73.5 166.5q0 95 -76.5 141.5t-207.5 46.5q-140 0 -182 -10zM322 580q160 -11 182 -11q116 0 177.5 51.5t61.5 145.5q0 74 -65 129t-170 55 q-88 0 -176 -18q-10 -150 -10 -352z" />
<glyph unicode="&#x433;" horiz-adv-x="880" d="M139 -6q19 185 19 518q0 335 -19 518q102 -20 287 -20q178 0 403 18q-4 -28 -4 -70q0 -29 4 -61q-249 14 -497 14q-10 -95 -10 -399q0 -342 18 -518q-46 6 -94 6q-60 0 -107 -6z" />
<glyph unicode="&#x434;" horiz-adv-x="1273" d="M31 125l137 -19q174 364 414 949q34 -6 69 -6q39 0 76 6q59 -144 199 -470t207 -468l110 8l-31 -416h-71q8 55 8 117q0 55 -10.5 92.5t-29 53.5t-35.5 22t-38 6h-766q-32 0 -49 -2.5t-37 -13.5t-29 -33t-15.5 -63t-6.5 -103q0 -40 4 -76h-76zM322 106q225 -10 292 -10 q95 0 312 17q-110 333 -312 761q-187 -432 -292 -768z" />
<glyph unicode="&#x435;" d="M78 502q0 161 53.5 283t166.5 194t275 72q216 0 326.5 -122t110.5 -364q0 -31 -4 -71q-156 16 -256 16h-478q0 -459 357 -459q101 0 180 40.5t154 121.5l18 -20l-25 -103q-168 -119 -372 -119q-232 0 -369 145t-137 386zM272 602h541v60q0 126 -70 217.5t-180 91.5 q-128 0 -202.5 -102t-88.5 -267z" />
<glyph unicode="&#x436;" horiz-adv-x="1658" d="M23 -6q107 115 297 328t237 270l-489 438q93 -6 100 -6q13 0 100 6q18 -32 112 -139.5t199 -209t136 -101.5h33q0 267 -19 450q12 -1 35.5 -2.5t41 -2.5t28.5 -1q3 0 96 6q-19 -183 -19 -450h33q31 0 136 101.5t199 209t112 139.5q87 -6 100 -6q7 0 100 6l-489 -438 q47 -57 237 -270t297 -328q-82 6 -123 6q-71 0 -135 -6q-52 82 -188 246t-246 284h-33q0 -345 19 -530q-46 6 -94 6q-60 0 -107 -6q19 185 19 530h-33q-110 -120 -246 -284t-188 -246q-65 6 -136 6q-39 0 -122 -6z" />
<glyph unicode="&#x437;" horiz-adv-x="987" d="M72 88q39 50 63 150q47 -74 130 -130.5t175 -56.5q108 0 189.5 66.5t81.5 177.5q0 99 -76.5 153t-196.5 54q-56 0 -129 -15q8 36 8 64q0 25 -8 65q78 -16 131 -16q103 0 159 46t56 140q0 95 -54 140t-144 45q-72 0 -140 -28.5t-151 -104.5q-14 43 -55 102 q183 111 358 111q45 0 93.5 -7t101.5 -25.5t94.5 -45.5t68.5 -70.5t27 -97.5q0 -194 -199 -234v-14q130 -27 192 -85.5t62 -162.5q0 -74 -34 -134.5t-86.5 -97.5t-120.5 -61.5t-131 -34.5t-123 -10q-89 0 -189 32.5t-153 84.5z" />
<glyph unicode="&#x438;" horiz-adv-x="1214" d="M139 -6q19 185 19 518q0 335 -19 518q12 -1 35.5 -2.5t41 -2.5t28.5 -1q3 0 96 6q-18 -173 -18 -518q0 -150 4 -264q94 114 318.5 400.5t291.5 381.5q35 -6 61 -6q9 0 78 6q-18 -173 -18 -518q0 -342 18 -518q-47 6 -94 6q-61 0 -107 -6q19 185 19 518q0 195 -4 281 q-97 -99 -312 -376.5t-313 -422.5q-27 6 -59 6q-18 0 -66 -6z" />
<glyph unicode="&#x439;" horiz-adv-x="1214" d="M139 -6q19 185 19 518q0 335 -19 518q12 -1 35.5 -2.5t41 -2.5t28.5 -1q3 0 96 6q-18 -173 -18 -518q0 -150 4 -264q94 114 318.5 400.5t291.5 381.5q35 -6 61 -6q9 0 78 6q-18 -173 -18 -518q0 -342 18 -518q-47 6 -94 6q-61 0 -107 -6q19 185 19 518q0 195 -4 281 q-97 -99 -312 -376.5t-313 -422.5q-27 6 -59 6q-18 0 -66 -6zM334 1262q18 62 24 149l4 4q45 -76 116 -114.5t147 -38.5q182 0 272 153l8 -4q0 -73 23 -149q-149 -76 -303 -76q-60 0 -143.5 20t-147.5 56z" />
<glyph unicode="&#x43a;" horiz-adv-x="1069" d="M139 -6q19 185 19 518q0 335 -19 518q12 -1 35.5 -2.5t41 -2.5t28.5 -1q3 0 96 6q-18 -173 -18 -450h32q31 0 136 101.5t199 209t112 139.5q87 -6 100 -6q7 0 100 6l-489 -438q47 -56 237 -268.5t298 -329.5q-83 6 -123 6q-72 0 -136 -6q-52 82 -188 246t-246 284h-32 q0 -354 18 -530q-46 6 -94 6q-60 0 -107 -6z" />
<glyph unicode="&#x43b;" d="M25 -6q94 165 226.5 473.5t225.5 562.5q27 -6 62 -6q39 0 69 6q76 -200 234 -578t215 -458q-87 6 -119 6q-23 0 -104 -6q-156 466 -330 817q-88 -200 -180.5 -440t-122.5 -377q-47 6 -92 6q-37 0 -84 -6z" />
<glyph unicode="&#x43c;" horiz-adv-x="1392" d="M57 -6q38 169 79.5 547t41.5 489q42 -6 55 -6q29 0 50 6q41 -112 193.5 -397.5t234.5 -415.5q96 180 237 470t158 343q27 -6 57 -6q27 0 51 6q15 -173 56.5 -529t64.5 -507q-12 1 -33 2.5t-38 2.5t-33 1q-72 0 -96 -6q0 284 -58 733q-149 -280 -364 -733q-21 6 -39 6 q-27 0 -45 -6q-49 112 -108 224t-152 275.5t-123 217.5q-9 -74 -23 -363.5t-14 -353.5q-35 6 -76 6q-39 0 -76 -6z" />
<glyph unicode="&#x43d;" horiz-adv-x="1177" d="M139 -6q19 185 19 518q0 335 -19 518q12 -1 35.5 -2.5t41 -2.5t28.5 -1q3 0 96 6q-18 -176 -18 -424q172 -8 276 -8q136 0 258 8q0 251 -18 424q12 -1 35 -2.5t40.5 -2.5t28.5 -1q3 0 96 6q-18 -173 -18 -518q0 -342 18 -518q-46 6 -94 6q-60 0 -106 -6q18 175 18 498 q-210 14 -260 14q-137 0 -274 -10q0 -326 18 -502q-46 6 -94 6q-60 0 -107 -6z" />
<glyph unicode="&#x43e;" horiz-adv-x="1191" d="M78 489q0 254 147 408t383 154q230 0 368 -149.5t138 -383.5q0 -156 -63 -280t-183 -195.5t-278 -71.5q-153 0 -271 70t-179.5 187t-61.5 261zM272 496q0 -120 32 -218t105 -162.5t177 -64.5q154 0 244 132.5t90 342.5q0 87 -18 163.5t-54 141t-99.5 102.5t-146.5 38 q-106 0 -182.5 -69t-112 -174.5t-35.5 -231.5z" />
<glyph unicode="&#x43f;" horiz-adv-x="1157" d="M139 -6q19 185 19 518q0 335 -19 518q156 -12 252 -12h383q92 0 244 12q-19 -183 -19 -518q0 -333 19 -518q-46 6 -94 6q-60 0 -107 -6q19 185 19 518q0 226 -9 395q-96 8 -249 8q-128 0 -248 -6q-8 -193 -8 -397q0 -342 18 -518q-46 6 -94 6q-60 0 -107 -6z" />
<glyph unicode="&#x440;" horiz-adv-x="1198" d="M139 -451q19 185 19 615v252q0 429 -19 614q12 -1 35.5 -2.5t41 -2.5t28.5 -1q3 0 96 6q-3 -24 -7.5 -96.5t-4.5 -85.5q75 106 153.5 154.5t196.5 48.5q201 0 321.5 -141t120.5 -371q0 -85 -16 -164.5t-53 -153.5t-91 -129t-135.5 -88t-181.5 -33q-103 0 -174 31.5 t-147 130.5q0 -409 18 -584q-54 7 -94 7q-53 0 -107 -7zM322 489q0 -86 15 -158t47.5 -134.5t93 -98t143.5 -35.5q149 0 227 113t78 336q0 446 -299 446q-85 0 -147 -40t-95 -109.5t-48 -148.5t-15 -171z" />
<glyph unicode="&#x441;" horiz-adv-x="1034" d="M78 510q0 246 153 393.5t402 147.5q186 0 354 -90l-51 -154h-25q-101 164 -284 164q-87 0 -156.5 -39.5t-111.5 -105t-64.5 -145.5t-22.5 -167q0 -202 106.5 -332.5t291.5 -130.5q74 0 135 27t143 115l19 -23l-25 -100q-147 -99 -336 -99q-237 0 -382.5 150.5 t-145.5 388.5z" />
<glyph unicode="&#x442;" horiz-adv-x="983" d="M41 899q6 21 6 57q0 34 -6 72q194 -18 281 -18h340q86 0 280 18q-6 -38 -6 -72q0 -36 6 -57q-126 4 -258 4h-111v-391q0 -333 19 -518q-46 6 -94 6q-60 0 -107 -6q19 185 19 518v391h-111q-132 0 -258 -4z" />
<glyph unicode="&#x443;" horiz-adv-x="1077" d="M25 1030q56 -6 127 -6q62 0 114 6q11 -95 104 -333t203 -480q87 200 189 474.5t102 338.5q53 -6 105 -6q43 0 84 6q-27 -29 -181.5 -365t-303 -692.5t-154.5 -423.5q-47 7 -84 7q-51 0 -105 -7q44 61 130.5 219.5t119.5 227.5q-110 273 -254 606t-196 428z" />
<glyph unicode="&#x444;" horiz-adv-x="1712" d="M78 524q0 222 114 374.5t261 152.5q206 0 321 -152q0 395 -18 571q12 -1 35 -2.5t40.5 -2.5t28.5 -1q3 0 96 6q-18 -176 -18 -571q56 74 141 113t189 39q143 0 254.5 -151t111.5 -374q0 -138 -50.5 -264t-148.5 -208.5t-221 -82.5q-83 0 -150.5 29.5t-125.5 103.5 q0 -382 18 -557q-54 7 -94 7q-52 0 -106 -7q18 176 18 557q-110 -133 -293 -133q-92 0 -169.5 47.5t-127.5 126t-78 177t-28 202.5zM262 510q0 -107 25.5 -195.5t66 -140.5t85 -80t87.5 -28q82 0 149 44.5t99 114.5v545q-25 50 -45 80t-47.5 56t-62 37t-80.5 11 q-277 0 -277 -444zM938 225q39 -74 103 -116.5t145 -42.5q34 0 70 17t71 53t62 87t44 125.5t17 161.5q0 225 -67.5 334.5t-206.5 109.5q-87 0 -137.5 -43t-100.5 -141v-545z" />
<glyph unicode="&#x445;" horiz-adv-x="1032" d="M25 -6q195 244 397 506q-64 94 -196.5 273.5t-194.5 256.5q58 -6 125 -6q52 0 98 6q37 -66 120 -186.5t152 -212.5q203 258 283 399q38 -6 78 -6q41 0 76 6q-56 -62 -194 -231.5t-189 -239.5q72 -102 215.5 -292.5t212.5 -272.5q-56 6 -115 6q-75 0 -133 -6 q-32 69 -116.5 196t-168.5 236q-38 -47 -152.5 -211.5t-148.5 -220.5q-38 6 -74 6q-40 0 -75 -6z" />
<glyph unicode="&#x446;" horiz-adv-x="1210" d="M139 -6q19 185 19 518q0 335 -19 518q12 -1 35.5 -2.5t41 -2.5t28.5 -1q3 0 96 6q-18 -173 -18 -518q0 -245 10 -401q160 -19 243 -19q126 0 259 19q10 151 10 401q0 335 -19 518q12 -1 35.5 -2.5t41 -2.5t28.5 -1q3 0 96 6q-18 -173 -18 -518q0 -265 10 -406l145 11 l-30 -414h-66q8 60 8 115q0 58 -10.5 95.5t-32 55.5t-45.5 24.5t-59 6.5q-83 0 -187.5 -3t-113.5 -3q-12 0 -153.5 3t-211.5 3q-18 0 -123 -6z" />
<glyph unicode="&#x447;" horiz-adv-x="1167" d="M139 1030q12 -1 35.5 -2.5t41 -2.5t28.5 -1q3 0 96 6q-14 -137 -14 -235q0 -154 67 -246t217 -92q77 0 134.5 19t101.5 71q0 300 -19 483q12 -1 35.5 -2.5t41 -2.5t28.5 -1q3 0 96 6q-18 -173 -18 -518q0 -342 18 -518q-46 6 -94 6q-60 0 -107 -6q19 185 19 450 q-118 -96 -299 -96q-101 0 -189.5 42t-145 123t-56.5 183q0 147 -17 334z" />
<glyph unicode="&#x448;" horiz-adv-x="1646" d="M139 -6q19 185 19 518q0 335 -19 518q12 -1 35.5 -2.5t41 -2.5t28.5 -1q3 0 96 6q-18 -173 -18 -518q0 -268 10 -401q80 -19 205 -19q101 0 194 19q10 174 10 401q0 345 -18 518q12 -1 35 -2.5t40.5 -2.5t28.5 -1q4 0 97 6q-19 -183 -19 -518q0 -280 10 -403 q108 -17 193 -17q77 0 207 17q10 146 10 403q0 345 -18 518q12 -1 35 -2.5t40.5 -2.5t28.5 -1q3 0 96 6q-18 -173 -18 -518q0 -342 18 -518q-77 6 -168 6q-61 0 -241 -3t-275 -3q-52 0 -227 3t-270 3q-126 0 -187 -6z" />
<glyph unicode="&#x449;" horiz-adv-x="1691" d="M139 -6q19 185 19 518q0 335 -19 518q12 -1 35.5 -2.5t41 -2.5t28.5 -1q3 0 96 6q-18 -173 -18 -518q0 -268 10 -401q80 -19 205 -19q101 0 194 19q10 174 10 401q0 345 -18 518q12 -1 35 -2.5t40.5 -2.5t28.5 -1q4 0 97 6q-19 -183 -19 -518q0 -280 10 -403 q108 -17 193 -17q77 0 207 17q10 146 10 403q0 345 -18 518q12 -1 35 -2.5t40.5 -2.5t28.5 -1q3 0 96 6q-18 -173 -18 -518q0 -265 10 -406l146 11l-31 -414h-66q8 60 8 115q0 58 -10.5 95.5t-32 55.5t-45.5 24.5t-59 6.5q-41 0 -264 -3t-322 -3q-52 0 -227 3t-270 3 q-126 0 -187 -6z" />
<glyph unicode="&#x44a;" horiz-adv-x="1208" d="M27 905q8 36 8 66q0 23 -8 59q37 -6 155 -6h215q4 0 97 6q-19 -197 -19 -409q25 1 65 2.5t73 2.5t63 1q214 0 334 -75t120 -235q0 -163 -123 -243t-329 -80q-30 0 -124.5 3t-143.5 3q-74 0 -117 -6q18 175 18 518q0 284 -8 406q-35 6 -92 6q-24 0 -93 -5t-91 -14z M475 532q0 -294 10 -444q51 -14 189 -14q262 0 262 241q0 57 -17 100t-43 67.5t-62 39.5t-68 20t-68 5q-104 0 -203 -15z" />
<glyph unicode="&#x44b;" horiz-adv-x="1476" d="M139 -6q19 185 19 518q0 335 -19 518q12 -1 35.5 -2.5t41 -2.5t28.5 -1q3 0 96 6q-18 -186 -18 -409q10 0 85 3t115 3q214 0 334.5 -75t120.5 -235q0 -110 -60 -184t-159.5 -106.5t-233.5 -32.5q-30 0 -124.5 3t-143.5 3q-74 0 -117 -6zM322 532q0 -294 10 -444 q51 -14 188 -14q262 0 262 241q0 57 -17 100t-43 67.5t-62 39.5t-68 20t-68 5q-103 0 -202 -15zM1137 -6q18 176 18 518q0 345 -18 518q12 -1 35 -2.5t40.5 -2.5t28.5 -1q3 0 96 6q-18 -173 -18 -518q0 -342 18 -518q-47 6 -94 6q-59 0 -106 -6z" />
<glyph unicode="&#x44c;" horiz-adv-x="1054" d="M139 -6q19 185 19 518q0 335 -19 518q12 -1 35.5 -2.5t41 -2.5t28.5 -1q3 0 96 6q-18 -186 -18 -409q10 0 85 3t115 3q214 0 334.5 -75t120.5 -235q0 -110 -60 -184t-159.5 -106.5t-233.5 -32.5q-30 0 -124.5 3t-143.5 3q-74 0 -117 -6zM322 532q0 -294 10 -444 q51 -14 188 -14q262 0 262 241q0 57 -17 100t-43 67.5t-62 39.5t-68 20t-68 5q-103 0 -202 -15z" />
<glyph unicode="&#x44d;" horiz-adv-x="1034" d="M57 961q145 90 385 90q234 0 374 -151.5t140 -389.5q0 -154 -58.5 -275t-177.5 -192.5t-282 -71.5q-115 0 -203 15.5t-169 64.5q37 97 49 170q51 -78 131 -122t170 -44q150 0 253 118t103 310h-246q-89 0 -225 -16q4 36 4 65q0 22 -4 68q136 -16 225 -16h246 q0 105 -38.5 194.5t-119 147t-188.5 57.5q-112 0 -180.5 -42.5t-120.5 -121.5h-16z" />
<glyph unicode="&#x44e;" horiz-adv-x="1607" d="M139 -6q19 185 19 518q0 335 -19 518q12 -1 35.5 -2.5t41 -2.5t28.5 -1q3 0 96 6q-18 -173 -18 -442h174q25 211 170 337t358 126q230 0 368 -149.5t138 -383.5q0 -239 -143.5 -393t-382.5 -154q-155 0 -272.5 70t-178.5 188.5t-61 266.5h-170q0 -326 18 -502 q-46 6 -94 6q-60 0 -107 -6zM686 496q0 -89 19 -167.5t56.5 -141.5t98.5 -99.5t139 -36.5q155 0 245.5 132.5t90.5 342.5q0 87 -17.5 163.5t-53.5 141t-99.5 102.5t-146.5 38q-106 0 -183 -69t-113 -174.5t-36 -231.5z" />
<glyph unicode="&#x44f;" horiz-adv-x="1064" d="M51 -6q74 67 214.5 217.5t209.5 232.5q-87 0 -165 34t-129.5 103t-51.5 158q0 133 99.5 222.5t285.5 89.5q42 0 152 -13.5t127 -13.5q89 0 133 6q-19 -183 -19 -518q0 -333 19 -518q-46 6 -95 6q-59 0 -106 -6q18 178 18 459q-45 -9 -86 -9q-63 -75 -190 -236t-166 -214 q-53 6 -125 6q-70 0 -125 -6zM319 752q0 -65 22 -111t61.5 -70.5t85 -35.5t100.5 -11q52 0 155 27q0 207 -10 373q-67 34 -170 34q-120 0 -182 -53t-62 -153z" />
<glyph unicode="&#x451;" d="M78 502q0 161 53.5 283t166.5 194t275 72q216 0 326.5 -122t110.5 -364q0 -31 -4 -71q-156 16 -256 16h-478q0 -459 357 -459q101 0 180 40.5t154 121.5l18 -20l-25 -103q-168 -119 -372 -119q-232 0 -369 145t-137 386zM242 1321q0 47 30.5 78t79.5 31q111 0 111 -109 q0 -50 -29.5 -81.5t-81.5 -31.5q-51 0 -80.5 31t-29.5 82zM272 602h541v60q0 126 -70 217.5t-180 91.5q-128 0 -202.5 -102t-88.5 -267zM639 1321q0 46 31 77.5t80 31.5q110 0 110 -109q0 -51 -29.5 -82t-80.5 -31q-52 0 -81.5 31.5t-29.5 81.5z" />
<glyph unicode="&#x452;" horiz-adv-x="1163" d="M10 1225q4 28 4 61q0 26 -4 66q50 -19 144 -19q-3 174 -15 275q12 -1 35.5 -2.5t41 -2.5t28.5 -1q3 0 96 6q-11 -121 -14 -275h340q59 0 137 19q-4 -40 -4 -64q0 -17 4 -63q-60 16 -135 16h-346v-383q51 96 141.5 144.5t193.5 48.5q153 0 254 -90.5t101 -243.5 q0 -24 -3 -97t-3 -108v-434q0 -121 -33.5 -222t-87.5 -164t-119.5 -97.5t-132.5 -34.5q-64 0 -144.5 24t-123.5 58q30 55 65 149q90 -149 199 -149q115 0 164 93.5t49 297.5v479q0 226 -64 324t-190 98q-52 0 -93.5 -15t-69 -39t-47 -62t-30.5 -74t-17 -85.5t-7.5 -87 t-1.5 -86.5q0 -315 18 -491q-46 6 -94 6q-60 0 -107 -6q19 185 19 614v385q0 166 -4 248q-108 0 -144 -16z" />
<glyph unicode="&#x453;" horiz-adv-x="880" d="M139 -6q19 185 19 518q0 335 -19 518q102 -20 287 -20q178 0 403 18q-4 -28 -4 -70q0 -29 4 -61q-249 14 -497 14q-10 -95 -10 -399q0 -342 18 -518q-46 6 -94 6q-60 0 -107 -6zM379 1073q135 225 182 342q79 -12 123 -12q36 0 113 12l10 -29q-211 -172 -350 -313h-78z " />
<glyph unicode="&#x454;" horiz-adv-x="1034" d="M78 510q0 154 65.5 276t193 193.5t296.5 71.5q192 0 354 -90l-51 -154h-25q-101 164 -284 164q-78 0 -141.5 -32t-105.5 -86.5t-68 -120t-36 -138.5h240q74 0 227 18q-4 -36 -4 -69q0 -16 4 -66q-141 19 -223 19h-248q0 -193 109 -319t289 -126q79 0 143 32.5t135 109.5 l19 -23l-25 -100q-147 -99 -336 -99q-235 0 -381.5 149t-146.5 390z" />
<glyph unicode="&#x455;" horiz-adv-x="841" d="M88 55q38 67 66 150q54 -89 112.5 -121.5t130.5 -32.5q92 0 152.5 51t60.5 138q0 39 -14 70t-32.5 50t-55 36t-64 26t-75.5 22q-128 34 -195.5 102t-67.5 187q0 144 96.5 231t252.5 87q77 0 130.5 -17t110.5 -53q-40 -87 -61 -150q-78 140 -211 140q-75 0 -124.5 -46.5 t-49.5 -121.5q0 -46 17.5 -81.5t50.5 -59.5t70 -39t85 -27q73 -18 120 -38t86 -51.5t57 -78t18 -111.5q0 -96 -56 -176t-147 -125t-193 -45q-157 0 -270 84z" />
<glyph unicode="&#x456;" horiz-adv-x="589" d="M184 1411q0 46 31 77.5t80 31.5q111 0 111 -109q0 -50 -29.5 -81.5t-81.5 -31.5t-81.5 31.5t-29.5 81.5zM190 -6q19 185 19 518q0 335 -19 518q12 -1 35.5 -2.5t41 -2.5t28.5 -1q3 0 96 6q-18 -173 -18 -518q0 -342 18 -518q-47 6 -94 6q-61 0 -107 -6z" />
<glyph unicode="&#x457;" horiz-adv-x="589" d="M0 1411q0 46 31 77.5t80 31.5q110 0 110 -109q0 -51 -29.5 -82t-80.5 -31q-52 0 -81.5 31.5t-29.5 81.5zM190 -6q19 185 19 518q0 335 -19 518q12 -1 35.5 -2.5t41 -2.5t28.5 -1q3 0 96 6q-18 -173 -18 -518q0 -342 18 -518q-47 6 -94 6q-61 0 -107 -6zM360 1411 q0 46 31 77.5t80 31.5q111 0 111 -109q0 -50 -29.5 -81.5t-81.5 -31.5t-81.5 31.5t-29.5 81.5z" />
<glyph unicode="&#x458;" horiz-adv-x="600" d="M-6 -377l57 15q50 12 85.5 55t52 104t23.5 117.5t7 116.5v385q0 438 -18 614q12 -1 35 -2.5t40.5 -2.5t28.5 -1q3 0 96 6q-18 -176 -18 -614v-385q0 -57 -1.5 -91.5t-9 -84.5t-21.5 -81.5t-41 -69.5t-66 -63t-97.5 -47.5t-134.5 -35.5zM195 1411q0 47 30.5 78t79.5 31 q111 0 111 -109q0 -50 -29.5 -81.5t-81.5 -31.5q-51 0 -80.5 31t-29.5 82z" />
<glyph unicode="&#x459;" horiz-adv-x="1550" d="M25 -6q27 24 214 437.5t265 598.5q30 -6 59 -6q34 0 64 6l141 -418q147 21 240 21q98 0 180.5 -18t147 -55t101 -98.5t36.5 -142.5q0 -109 -60.5 -183.5t-163.5 -108t-243 -33.5q-14 0 -50 3t-49 3q-63 0 -125 -6q-39 154 -117 398t-149 429q-81 -168 -193 -457 t-120 -370q-11 1 -31.5 2.5t-36 2.5t-24.5 1q-51 0 -86 -6zM803 524l151 -442q66 -8 115 -8q41 0 76 12t66 38.5t49 75t18 115.5q0 56 -19 100t-47.5 69t-66.5 41.5t-71 22t-66 5.5q-102 0 -205 -29z" />
<glyph unicode="&#x45a;" horiz-adv-x="1753" d="M139 -6q19 185 19 518q0 335 -19 518q12 -1 35.5 -2.5t41 -2.5t28.5 -1q3 0 96 6q-18 -176 -18 -424q172 -8 276 -8q136 0 258 8q0 251 -18 424q12 -1 35 -2.5t40.5 -2.5t28.5 -1q3 0 96 6q-18 -186 -18 -409q25 1 65 2.5t73 2.5t63 1q214 0 334 -75t120 -235 q0 -163 -123 -243t-329 -80q-30 0 -125 3t-144 3q-72 0 -116 -6q18 175 18 498q-210 14 -260 14q-137 0 -274 -10q0 -326 18 -502q-46 6 -94 6q-60 0 -107 -6zM1020 532q0 -294 10 -444q51 -14 189 -14q262 0 262 241q0 57 -17 100t-43 67.5t-62 39.5t-68 20t-68 5 q-104 0 -203 -15z" />
<glyph unicode="&#x45b;" horiz-adv-x="1163" d="M10 1225q4 28 4 61q0 26 -4 66q50 -19 144 -19q-3 174 -15 275q12 -1 35.5 -2.5t41 -2.5t28.5 -1q3 0 96 6q-11 -121 -14 -275h340q59 0 137 19q-4 -40 -4 -64q0 -17 4 -63q-60 16 -135 16h-346v-383q51 96 141.5 144.5t193.5 48.5q153 0 254 -90.5t101 -243.5 q0 -24 -3 -97t-3 -108q0 -342 18 -518q-46 6 -94 6q-60 0 -107 -6q19 185 19 518q0 226 -64 324t-190 98q-52 0 -93.5 -15t-69 -39t-47 -62t-30.5 -74t-17 -85.5t-7.5 -87t-1.5 -86.5q0 -315 18 -491q-46 6 -94 6q-60 0 -107 -6q19 185 19 614v385q0 166 -4 248 q-108 0 -144 -16z" />
<glyph unicode="&#x45c;" horiz-adv-x="1069" d="M139 -6q19 185 19 518q0 335 -19 518q12 -1 35.5 -2.5t41 -2.5t28.5 -1q3 0 96 6q-18 -173 -18 -450h32q31 0 136 101.5t199 209t112 139.5q87 -6 100 -6q7 0 100 6l-489 -438q47 -56 237 -268.5t298 -329.5q-83 6 -123 6q-72 0 -136 -6q-52 82 -188 246t-246 284h-32 q0 -354 18 -530q-46 6 -94 6q-60 0 -107 -6zM469 1100q135 225 182 342q80 -12 123 -12q36 0 113 12l10 -29q-211 -172 -350 -313h-78z" />
<glyph unicode="&#x45e;" horiz-adv-x="1077" d="M25 1030q56 -6 127 -6q62 0 114 6q11 -95 104 -333t203 -480q87 200 189 474.5t102 338.5q53 -6 105 -6q43 0 84 6q-27 -29 -181.5 -365t-303 -692.5t-154.5 -423.5q-47 7 -84 7q-51 0 -105 -7q44 61 130.5 219.5t119.5 227.5q-110 273 -254 606t-196 428zM272 1284 q19 66 25 150l4 4q45 -76 115.5 -115t146.5 -39q182 0 273 154l8 -4q0 -77 22 -150q-149 -76 -303 -76q-60 0 -143.5 20t-147.5 56z" />
<glyph unicode="&#x45f;" horiz-adv-x="1165" d="M139 -6q19 185 19 518q0 335 -19 518q12 -1 35.5 -2.5t41 -2.5t28.5 -1q3 0 96 6q-18 -173 -18 -518q0 -245 10 -401q160 -19 243 -19q126 0 259 19q10 151 10 401q0 335 -19 518q12 -1 35.5 -2.5t41 -2.5t28.5 -1q3 0 96 6q-18 -173 -18 -518q0 -342 18 -518 q-144 6 -309 6q-101 0 -101 -291h-67q0 163 -32 227t-89 64q-178 0 -289 -6z" />
<glyph unicode="&#x490;" horiz-adv-x="1067" d="M197 -6q16 300 16 794q0 566 -16 695q129 -6 299 -6h204q122 0 163.5 46t41.5 183q0 21 -4 57h64q0 -38 13.5 -192t22.5 -219q-172 16 -428 16h-170q-6 -46 -6 -580q0 -475 17 -794q-99 6 -103 6q-15 0 -114 -6z" />
<glyph unicode="&#x491;" horiz-adv-x="880" d="M139 -6q19 185 19 518q0 335 -19 518q102 -20 287 -20h195q75 0 105 45t30 151q0 44 -4 84h63q0 -218 14 -393q-249 14 -497 14q-10 -95 -10 -399q0 -342 18 -518q-46 6 -94 6q-60 0 -107 -6z" />
<glyph unicode="&#x2000;" horiz-adv-x="1006" />
<glyph unicode="&#x2001;" horiz-adv-x="2013" />
<glyph unicode="&#x2002;" horiz-adv-x="1006" />
<glyph unicode="&#x2003;" horiz-adv-x="2013" />
<glyph unicode="&#x2004;" horiz-adv-x="671" />
<glyph unicode="&#x2005;" horiz-adv-x="503" />
<glyph unicode="&#x2006;" horiz-adv-x="335" />
<glyph unicode="&#x2007;" horiz-adv-x="335" />
<glyph unicode="&#x2008;" horiz-adv-x="251" />
<glyph unicode="&#x2009;" horiz-adv-x="402" />
<glyph unicode="&#x200a;" horiz-adv-x="111" />
<glyph unicode="&#x2010;" horiz-adv-x="745" d="M37 483v115h680v-115h-680z" />
<glyph unicode="&#x2011;" horiz-adv-x="745" d="M37 483v115h680v-115h-680z" />
<glyph unicode="&#x2012;" horiz-adv-x="745" d="M37 483v115h680v-115h-680z" />
<glyph unicode="&#x2013;" horiz-adv-x="1216" d="M66 483v115h1085v-115h-1085z" />
<glyph unicode="&#x2014;" horiz-adv-x="1622" d="M66 483v115h1493v-115h-1493z" />
<glyph unicode="&#x2018;" horiz-adv-x="600" d="M154 989q0 60 59 156l219 360l51 -20l-139 -451q-20 -64 -47 -93.5t-64 -29.5q-79 0 -79 78z" />
<glyph unicode="&#x2019;" horiz-adv-x="600" d="M162 932l139 450q20 64 47 93.5t64 29.5q80 0 80 -78q0 -58 -60 -155l-219 -361z" />
<glyph unicode="&#x201a;" horiz-adv-x="602" d="M96 -379l150 488q36 112 110 112q82 0 82 -82q0 -48 -57 -147l-240 -398z" />
<glyph unicode="&#x201c;" horiz-adv-x="921" d="M154 989q0 60 59 156l219 360l51 -20l-139 -451q-20 -64 -47 -93.5t-64 -29.5q-79 0 -79 78zM469 989q0 60 59 156l220 360l51 -20l-140 -451q-20 -64 -46.5 -93.5t-63.5 -29.5q-80 0 -80 78z" />
<glyph unicode="&#x201d;" horiz-adv-x="921" d="M154 932l139 450q20 64 46.5 93.5t63.5 29.5q80 0 80 -78q0 -59 -59 -155l-219 -361zM453 932l139 450q20 64 46.5 93.5t63.5 29.5q80 0 80 -78q0 -59 -59 -155l-219 -361z" />
<glyph unicode="&#x201e;" horiz-adv-x="1001" d="M96 -379l150 488q36 112 110 112q82 0 82 -82q0 -48 -57 -147l-240 -398zM496 -379l149 488q36 112 111 112q82 0 82 -82q0 -46 -58 -147l-239 -398z" />
<glyph unicode="&#x2026;" horiz-adv-x="1923" d="M207 96q0 52 36 88.5t89 36.5q51 0 88 -37.5t37 -91.5q0 -51 -38 -86t-87 -35q-54 0 -89.5 36.5t-35.5 88.5zM836 96q0 52 36 88.5t89 36.5q51 0 87.5 -37.5t36.5 -91.5q0 -51 -37.5 -86t-86.5 -35q-54 0 -89.5 36.5t-35.5 88.5zM1464 96q0 52 36 88.5t89 36.5 q51 0 88 -37.5t37 -91.5q0 -51 -38 -86t-87 -35q-54 0 -89.5 36.5t-35.5 88.5z" />
<glyph unicode="&#x202f;" horiz-adv-x="402" />
<glyph unicode="&#x2039;" horiz-adv-x="481" d="M84 516q171 235 246 373q36 -68 106 -86q-45 -58 -107.5 -147.5t-92.5 -139.5q22 -35 99 -147t107 -152q-66 -17 -112 -72q-150 251 -246 371z" />
<glyph unicode="&#x203a;" horiz-adv-x="481" d="M43 217q31 41 108.5 153t98.5 146q-76 126 -201 287q71 18 107 86q77 -144 245 -373q-92 -115 -245 -371q-45 55 -113 72z" />
<glyph unicode="&#x205f;" horiz-adv-x="503" />
<glyph unicode="&#x20ac;" horiz-adv-x="1202" d="M43 567l33 76h104q-2 18 -2 72q0 8 1 31t1 32h-137l33 78h110q13 114 38 204t68 165t103 124t145 76t193 27q256 0 359 -121l14 -176h-43q-14 108 -92.5 161.5t-198.5 53.5q-97 0 -167.5 -36t-115 -106.5t-69.5 -160t-37 -211.5h606l-33 -78h-577q0 -9 -1 -32.5t-1 -32.5 q0 -52 2 -70h518l-33 -76h-481q17 -248 117.5 -382t271.5 -134q112 0 192.5 52.5t98.5 166.5h43l-14 -170q-102 -129 -359 -129q-247 0 -382.5 151.5t-160.5 444.5h-147z" />
<glyph unicode="&#x2122;" horiz-adv-x="1421" d="M20 1403q5 30 5 39q0 5 -5 35q136 -11 293 -11q132 0 260 11q-4 -24 -4 -39t4 -35q-52 8 -106 8h-111q-6 -102 -6 -313q0 -225 8 -373q-24 4 -49 4q-23 0 -59 -4q8 148 8 373q0 202 -6 313h-102q-76 0 -130 -8zM532 725q20 90 54 332.5t53 408.5h20q189 -378 316 -585 q222 394 315 585h21q9 -98 39.5 -359.5t50.5 -381.5q-28 4 -51 4q-28 0 -56 -4q-7 109 -25.5 291.5t-29.5 251.5q-132 -239 -281 -539h-20q-188 381 -270 531q-52 -406 -52 -535q-24 4 -38 4q-18 0 -46 -4z" />
<glyph unicode="&#x25fc;" horiz-adv-x="1034" d="M0 0v1034h1034v-1034h-1034z" />
</font>
</defs>
</svg>
